<svg width="10" height="10" viewBox="0 0 10 10" fill="none" xmlns="http://www.w3.org/2000/svg">
<path d="M5.6569 9.19235L9.19243 5.65681C9.58295 5.26629 9.58295 4.63312 9.19243 4.2426C8.80191 3.85208 8.16874 3.85208 7.77822 4.2426L4.24268 7.77813C3.85216 8.16866 3.85216 8.80182 4.24268 9.19235C4.63321 9.58287 5.26637 9.58287 5.6569 9.19235Z" fill="white"/>
<path d="M4.24259 2.12128L7.77812 5.65682C8.16865 6.04734 8.80181 6.04734 9.19234 5.65682C9.58286 5.26629 9.58286 4.63313 9.19234 4.2426L5.6568 0.707068C5.26628 0.316544 4.63311 0.316544 4.24259 0.707068C3.85206 1.09759 3.85206 1.73076 4.24259 2.12128Z" fill="white"/>
</svg>
