<svg width="31" height="31" viewBox="0 0 31 31" fill="none" xmlns="http://www.w3.org/2000/svg">
<path fill-rule="evenodd" clip-rule="evenodd" d="M15.8665 4.85887C18.5499 2.17539 22.9007 2.17539 25.5842 4.85887C28.2677 7.54235 28.2677 11.8931 25.5842 14.5766L21.7478 18.413C21.3584 18.8024 20.7271 18.8024 20.3377 18.413C19.9484 18.0237 19.9484 17.3924 20.3377 17.003L24.1742 13.1666C26.0789 11.2618 26.0789 8.17365 24.1742 6.26892C22.2694 4.36419 19.1813 4.36419 17.2765 6.26892L13.4401 10.1053C13.0507 10.4947 12.4194 10.4947 12.03 10.1053C11.6407 9.71597 11.6407 9.08467 12.03 8.6953L15.8665 4.85887ZM9.87044 12.2651C10.2598 12.6545 10.2598 13.2858 9.87043 13.6751L6.26902 17.2766C4.36428 19.1813 4.36429 22.2695 6.26902 24.1742C8.17375 26.0789 11.2619 26.0789 13.1667 24.1742L16.7681 20.5728C17.1575 20.1834 17.7888 20.1834 18.1781 20.5728C18.5675 20.9622 18.5675 21.5935 18.1781 21.9828L14.5767 25.5842C11.8932 28.2677 7.54245 28.2677 4.85897 25.5842C2.17549 22.9008 2.17549 18.55 4.85897 15.8665L8.46039 12.2651C8.84976 11.8757 9.48106 11.8757 9.87044 12.2651Z" fill="white"/>
<path fill-rule="evenodd" clip-rule="evenodd" d="M18.0192 11.705C18.4086 12.0944 18.4086 12.7257 18.0192 13.1151L13.3191 17.8152C12.9297 18.2046 12.2984 18.2046 11.909 17.8152C11.5196 17.4259 11.5196 16.7946 11.909 16.4052L16.6092 11.705C16.9986 11.3157 17.6299 11.3157 18.0192 11.705Z" fill="white"/>
</svg>
