<svg width="17" height="17" viewBox="0 0 17 17" fill="none" xmlns="http://www.w3.org/2000/svg">
<path d="M11.32 16.0082C11.2011 16.0028 11.0855 15.9672 10.9842 15.9048C10.8829 15.8423 10.7992 15.755 10.741 15.6512C10.6891 15.414 10.7047 15.167 10.786 14.9382C11.218 14.2584 11.4499 13.4707 11.455 12.6652C10.35 13.1093 9.16987 13.3364 7.979 13.3342C3.3 13.3782 0 10.8832 0 7.36223C0 3.17223 3.432 0.00822537 7.978 0.00822537C9.04459 -0.0411928 10.1097 0.132479 11.1054 0.518137C12.101 0.903796 13.0053 1.49296 13.7603 2.24796C14.5153 3.00296 15.1044 3.90718 15.4901 4.90283C15.8757 5.89848 16.0494 6.96364 16 8.03023C16 15.9632 11.543 16.0082 11.32 16.0082Z" fill="#EA91FF"/>
</svg>
