<svg width="365" height="239" viewBox="0 0 365 239" fill="none" xmlns="http://www.w3.org/2000/svg">
<path d="M34.3456 174.772C68.6687 225.062 164.089 248.469 235.071 229.678C306.107 210.887 367.747 109.004 330.111 53.5006C299.915 8.91307 236.863 14.5069 205.69 44.1595C159.039 88.5297 121.24 53.9893 93.4335 48.4499C33.8025 36.5562 -16.2159 100.749 34.3456 174.772Z" fill="#C0DDFF"/>
<path d="M37.387 200.406C60.3596 210.236 53.1908 248.849 21.8004 236.141C-9.59011 223.379 6.5396 187.263 37.387 200.406Z" fill="#C0DDFF"/>
<path d="M115.374 19.2317C104.458 35.5787 127.431 59.7461 158.333 54.7497C189.234 49.7533 197.924 27.0522 183.26 15.4301C168.597 3.80803 130.526 -3.46935 115.374 19.2317Z" fill="#C0DDFF"/>
<path d="M287.262 230.493C280.745 219.197 310.94 197.908 320.879 178.085C330.817 158.262 354.333 144.359 362.099 161.684C380.564 203.121 302.685 257.321 287.262 230.493Z" fill="#C0DDFF"/>
<g opacity="0.2">
<path d="M30.4898 128.61H11.1015C6.97408 128.61 3.60693 125.243 3.60693 121.115V44.4855C3.60693 40.3581 6.97408 36.9909 11.1015 36.9909H30.4355V128.61H30.4898Z" fill="#302F38" stroke="#302F38" stroke-width="0.9633" stroke-miterlimit="10" stroke-linecap="round" stroke-linejoin="round"/>
<path d="M8.16895 118.183V47.4182C8.16895 41.6615 12.8395 36.9909 18.5962 36.9909H120.968C126.725 36.9909 131.396 41.6615 131.396 47.4182V118.183C131.396 123.939 126.725 128.61 120.968 128.61H18.5962C12.8395 128.61 8.16895 123.939 8.16895 118.183Z" fill="#302F38"/>
<path d="M40.1025 45.8974H40.2654C39.4508 38.077 40.1025 45.8974 40.1025 45.8974Z" fill="#302F38"/>
<path d="M131.341 86.0858V68.4355L69.918 67.4036L69.2663 61.2667C74.5885 59.8547 76.3807 54.641 76.3807 54.641L81.5401 47.5266C83.9296 45.0284 82.4633 41.1725 82.4633 41.1725L40.3197 45.843C40.3197 46.006 40.374 46.1146 40.374 46.2775C41.2972 54.804 48.5746 52.1428 48.5746 52.1428L51.3987 55.0755C55.4175 60.7779 60.1967 61.2667 60.1967 61.2667L60.4139 69.0872L40.1568 78.6455C21.5289 91.8969 22.0719 120.3 22.6693 128.664H98.593L94.9543 94.6123C112.985 97.4907 123.955 93.0373 131.341 86.0858Z" fill="#302F38"/>
<path d="M8.16895 118.183V47.4182C8.16895 41.6615 12.8395 36.9909 18.5962 36.9909H120.968C126.725 36.9909 131.396 41.6615 131.396 47.4182V118.183C131.396 123.939 126.725 128.61 120.968 128.61H18.5962C12.8395 128.61 8.16895 123.939 8.16895 118.183Z" stroke="#302F38" stroke-width="0.9633" stroke-miterlimit="10" stroke-linecap="round" stroke-linejoin="round"/>
</g>
<path d="M27.8828 126.003H8.49461C4.36715 126.003 1 122.636 1 118.508V41.8786C1 37.7511 4.36715 34.384 8.49461 34.384H27.8285V126.003H27.8828Z" fill="#F4BF00" stroke="#F4BF00" stroke-width="0.9633" stroke-miterlimit="10" stroke-linecap="round" stroke-linejoin="round"/>
<path d="M5.56201 115.576V44.8112C5.56201 39.0545 10.2326 34.384 15.9893 34.384H118.361C124.118 34.384 128.789 39.0545 128.789 44.8112V115.576C128.789 121.332 124.118 126.003 118.361 126.003H15.9893C10.2326 126.003 5.56201 121.332 5.56201 115.576Z" fill="#FFF961"/>
<g opacity="0.15">
<path d="M37.4956 43.2362H37.6585C36.8439 35.47 37.4956 43.2362 37.4956 43.2362Z" fill="#F4BF00"/>
<path d="M128.734 83.4792V65.8288L67.311 64.7969L66.6593 58.66C71.9816 57.248 73.7738 52.0344 73.7738 52.0344L78.9331 44.9199C81.3227 42.4217 79.8564 38.5658 79.8564 38.5658L37.7128 43.2364C37.7128 43.3993 37.7671 43.5079 37.7671 43.6708C38.6903 52.1973 45.9677 49.5362 45.9677 49.5362L48.7917 52.4688C52.8106 58.1713 57.5898 58.66 57.5898 58.66L57.807 66.4805L37.5498 76.0388C18.9219 89.2902 19.465 117.694 20.0624 126.057H95.9861L92.3474 92.0056C110.324 94.884 121.348 90.4307 128.734 83.4792Z" fill="#F4BF00"/>
</g>
<path d="M5.56201 115.576V44.8112C5.56201 39.0545 10.2326 34.384 15.9893 34.384H118.361C124.118 34.384 128.789 39.0545 128.789 44.8112V115.576C128.789 121.332 124.118 126.003 118.361 126.003H15.9893C10.2326 126.003 5.56201 121.332 5.56201 115.576Z" stroke="#F4BF00" stroke-width="0.9633" stroke-miterlimit="10" stroke-linecap="round" stroke-linejoin="round"/>
<path d="M123.684 28.1384C123.684 24.4454 123.032 20.7524 121.783 17.2766C121.783 14.7241 121.62 12.6061 121.185 10.5423C121.131 10.2165 121.023 9.89062 120.86 9.61907C120.642 9.34753 120.317 9.18461 119.991 9.29322C119.556 9.45615 119.448 9.99924 119.448 10.488L119.23 16.6249C118.742 13.6922 118.198 10.2708 117.384 7.60965C117.275 7.17518 117.112 6.74071 116.841 6.41486C116.569 6.08901 116.135 5.81746 115.7 5.87177C115.266 5.92608 114.886 6.36055 114.777 6.79502C114.668 7.22949 114.668 7.71827 114.723 8.15274L115.537 16.462C114.723 13.3121 113.745 9.94493 112.55 7.12087C112.387 6.74071 112.225 6.41486 111.953 6.14331C111.681 5.87177 111.301 5.70884 110.921 5.76315C110.541 5.87177 110.269 6.25193 110.161 6.6864C110.106 7.06656 110.161 7.50103 110.215 7.9355C110.812 11.0311 111.573 14.4526 112.387 17.4938C111.138 14.3439 109.618 11.0854 107.988 8.31567C107.663 7.77258 107.174 7.17518 106.522 7.2838C106.142 7.39242 105.87 7.71827 105.762 8.15274C105.707 8.5329 105.762 8.96737 105.87 9.34753C106.685 13.0405 108.26 16.5163 109.781 19.9921L113.528 29.8763L123.684 28.1384Z" fill="#FE9283"/>
<path d="M110.595 18.6888C113.202 16.5165 116.949 15.8105 120.154 16.8966" stroke="#302F38" stroke-width="0.9633" stroke-miterlimit="10" stroke-linecap="round" stroke-linejoin="round"/>
<path d="M121.837 17.2766C121.837 14.7241 121.674 12.6061 121.24 10.5423C121.185 10.2165 121.077 9.89062 120.914 9.61907C120.697 9.34753 120.371 9.18461 120.045 9.29322C119.611 9.45615 119.502 9.99924 119.502 10.488L119.23 16.6249C118.742 13.6922 118.198 10.2708 117.384 7.60965C117.275 7.17518 117.112 6.74071 116.841 6.41486C116.569 6.08901 116.135 5.81746 115.7 5.87177C115.266 5.92608 114.886 6.36055 114.777 6.79502C114.668 7.22949 114.668 7.71827 114.723 8.15274L115.537 16.462C114.723 13.3121 113.745 9.94493 112.55 7.12087C112.387 6.74071 112.225 6.41486 111.953 6.14331C111.681 5.87177 111.301 5.70884 110.921 5.76315C110.541 5.87177 110.269 6.25193 110.161 6.6864C110.106 7.06656 110.161 7.50103 110.215 7.9355C110.812 11.0311 111.573 14.4526 112.387 17.4938C111.138 14.3439 109.618 11.0854 107.988 8.31567C107.663 7.77258 107.174 7.17518 106.522 7.2838C106.142 7.39242 105.87 7.71827 105.762 8.15274C105.707 8.5329 105.762 8.96737 105.87 9.34753C106.685 13.0405 108.26 16.5163 109.781 19.9921" stroke="#302F38" stroke-width="0.9633" stroke-miterlimit="10" stroke-linecap="round" stroke-linejoin="round"/>
<path d="M118.85 22.5989C118.09 21.1326 116.841 19.9378 115.375 19.2317C113.908 18.5257 112.17 18.3085 110.541 18.6344C109.509 16.9508 107.88 15.8646 106.033 15.4844C105.436 15.3758 104.676 15.3758 104.404 15.8646C104.024 16.5163 104.621 17.2223 105.164 17.7111C108.64 21.0239 111.138 25.423 112.225 30.0935L113.691 29.7677L118.85 22.5989Z" fill="#FE9283"/>
<path d="M118.85 22.5989C118.09 21.1326 116.841 19.9378 115.375 19.2317C113.908 18.5257 112.17 18.3085 110.541 18.6344C109.509 16.9508 107.88 15.8646 106.033 15.4844C105.436 15.3758 104.676 15.3758 104.404 15.8646C104.024 16.5163 104.621 17.2223 105.164 17.7111C108.64 21.0239 111.138 25.423 112.225 30.0935" stroke="#302F38" stroke-width="0.9633" stroke-miterlimit="10" stroke-linecap="round" stroke-linejoin="round"/>
<path d="M128.571 27.1609C122.271 25.8575 116.298 27.0523 110.867 29.4962C112.55 34.9271 113.854 40.8467 113.256 46.7121C112.659 52.5774 109.78 58.5514 104.567 61.3755C101.254 63.1676 97.3438 63.4935 93.5422 63.4392C88.3285 63.3306 83.1149 62.5703 77.9012 62.2987C77.2495 62.2444 76.5978 62.2444 75.9461 62.2444C75.9461 62.5159 64.9214 73.9751 64.9214 73.9751L48.9546 68.0011C43.1436 70.3907 37.9843 73.8665 33.9654 78.537C28.2087 85.2713 25.1674 94.015 23.9726 102.813C22.9407 110.471 23.158 118.182 23.5381 125.894H91.75C91.6956 110.253 89.6862 89.2902 89.6862 89.2902C96.0947 90.7565 102.992 90.322 109.183 87.9325C116.026 85.2713 122 80.3292 125.747 74.0294C129.875 67.1865 131.395 58.9859 131.395 50.9482C131.504 43.0191 130.038 35.09 128.571 27.1609Z" fill="#00B779"/>
<path d="M71.71 62.4617L63.5637 69.3589L52.6476 66.7521C51.3985 67.1322 50.1494 67.5667 48.9546 68.1098C56.4492 75.6587 62.6947 84.7826 68.3971 93.7435C72.6875 83.4249 75.1857 72.9433 75.9461 62.3531C74.534 62.2988 73.122 62.3531 71.71 62.4617Z" fill="#FF704D"/>
<path d="M71.7101 62.4616C68.5059 62.7331 65.4103 63.3305 62.4776 64.6339C59.1105 65.0684 55.7976 65.7744 52.6477 66.752C55.4175 70.1734 60.8483 72.7803 65.3017 71.3139C69.7007 69.7933 71.7101 66.5348 71.7101 62.4616Z" fill="#FE9283"/>
<path d="M40.6454 98.1424C40.3739 107.429 40.1024 116.716 39.8308 125.948" stroke="#302F38" stroke-width="0.9633" stroke-miterlimit="10" stroke-linecap="round" stroke-linejoin="round"/>
<path d="M125.856 74.0835C122.054 80.3834 116.134 85.3798 109.292 87.9866C103.1 90.3762 96.2575 90.8106 89.7947 89.3443C89.7947 89.3443 87.5138 88.8555 85.2871 87.7694" stroke="#302F38" stroke-width="0.9633" stroke-miterlimit="10" stroke-linecap="round" stroke-linejoin="round"/>
<path d="M68.3972 93.6891C69.8636 104.388 70.4609 115.195 70.1351 125.949" stroke="#302F38" stroke-width="0.9633" stroke-miterlimit="10" stroke-linecap="round" stroke-linejoin="round"/>
<path d="M49.009 68.0555C56.5036 75.6044 62.7492 84.7283 68.4516 93.6892C72.742 83.3705 75.2402 72.889 76.0005 62.2988" stroke="#302F38" stroke-width="0.9633" stroke-miterlimit="10" stroke-linecap="round" stroke-linejoin="round"/>
<path d="M58.3501 56.1075C58.513 60.0178 58.7303 63.928 58.8932 68.2727C61.5543 68.9244 64.3784 68.7615 67.2567 67.7839L65.7904 55.9446L58.3501 56.1075Z" fill="#FE9283"/>
<path opacity="0.18" d="M66.2791 59.4747L65.8446 55.8903L58.4043 56.0533C58.4586 57.411 58.5129 58.823 58.6215 60.235C60.5766 60.5609 63.5093 60.6152 66.2791 59.4747Z" fill="#543328"/>
<path d="M52.1588 52.7947C50.5296 53.555 48.5744 53.4464 47.0538 52.5231C45.5331 51.5999 44.5556 49.862 44.5556 47.9069C42.9806 45.6802 41.4057 43.5079 39.9393 41.2269C38.2558 41.2812 36.5722 40.1407 35.9205 38.5658C35.2688 36.9908 35.7033 35.0357 37.4411 33.5693C35.8119 32.4832 34.8343 30.4194 35.1059 28.4643C35.3774 26.5092 36.7894 24.7713 38.7989 24.3912C37.9842 22.2731 38.3644 19.7749 39.7764 17.9827C41.1884 16.2449 43.6323 15.3216 46.565 15.8647C47.1081 13.5837 48.9546 11.6829 51.2356 11.0855C53.5165 10.5424 56.0691 11.3028 58.4043 13.801C59.4362 12.1717 61.3913 11.1398 63.3464 11.1398C65.3015 11.1941 67.2024 12.2803 68.723 14.7242C70.841 13.2579 73.8823 13.3665 75.9461 14.9414C77.9555 16.5164 78.8244 19.4491 77.5753 21.6214C80.0192 22.7619 81.6485 25.3687 81.7571 28.0299C81.8114 30.691 80.2908 33.4064 77.7383 35.09C79.7477 36.9365 79.7477 40.5752 77.7926 42.2588C79.6934 44.1053 80.0735 47.3095 78.6615 49.5361C77.2495 51.7628 74.1539 52.7947 71.71 51.8171L52.1588 52.7947Z" fill="#010131"/>
<path d="M74.5338 33.7867C75.7829 38.1314 75.8372 42.9648 74.9682 47.4182C73.8821 53.1206 69.3744 57.5739 64.1065 58.4428C58.8385 59.3118 53.299 56.7593 50.0405 52.5775C46.782 48.3414 45.6958 42.6933 46.3475 37.3167C47.7595 37.0452 48.8457 35.5245 48.3569 34.1125C50.5293 33.4608 52.0499 31.1255 51.5612 29.1161C52.5387 30.148 53.6792 31.0712 55.0369 31.6143C56.3403 32.1574 57.9153 32.3203 59.273 31.8315C60.6307 31.3428 61.7712 30.148 61.9341 28.9532C61.9884 30.6911 63.2376 32.3746 64.9211 32.8634C66.6047 33.4065 68.5598 32.7548 69.5374 31.4514C70.4063 33.2979 72.6873 34.3297 74.5338 33.7867Z" fill="#FE9283"/>
<path d="M72.959 35.253C74.2081 34.2212 76.1089 34.0582 77.5209 34.8186C78.9329 35.5789 79.9105 37.1538 80.0734 38.7288C80.2364 40.3037 79.6933 41.9873 78.7157 43.2907C77.4666 44.8657 75.4572 45.9518 73.4478 45.626L72.959 35.253Z" fill="#FE9283"/>
<path d="M50.5293 39.978C51.2896 39.1634 52.3215 38.6746 53.4077 38.4574C54.4938 38.2944 55.6343 38.4574 56.6119 39.0004" stroke="#302F38" stroke-width="0.9633" stroke-miterlimit="10" stroke-linecap="round" stroke-linejoin="round"/>
<path d="M66.9849 38.2399C68.5598 36.9365 71.0037 36.7193 72.7959 37.6969" stroke="#302F38" stroke-width="0.9633" stroke-miterlimit="10" stroke-linecap="round" stroke-linejoin="round"/>
<path d="M62.2056 38.3486C63.0202 39.4891 63.9434 40.5753 64.921 41.6072C64.0521 41.8244 63.1288 41.8787 62.2056 41.7158" stroke="#302F38" stroke-width="0.9633" stroke-miterlimit="10" stroke-linecap="round" stroke-linejoin="round"/>
<path d="M57.3723 45.6804C61.1196 46.8209 65.3014 46.5494 68.8315 44.8658" stroke="#302F38" stroke-width="0.9633" stroke-miterlimit="10" stroke-linecap="round" stroke-linejoin="round"/>
<path d="M47.2709 38.1857C45.533 36.5564 42.7633 36.1763 40.6452 37.3168C38.5272 38.4573 37.2781 40.9011 37.4953 43.2364C37.7126 45.626 39.3961 47.7441 41.6228 48.613C43.8495 49.4819 46.4563 49.0475 48.3571 47.6354L47.2709 38.1857Z" fill="#FE9283"/>
<path d="M40.5366 43.2907C41.134 41.4442 42.9805 40.0321 44.9356 39.9778" stroke="#302F38" stroke-width="0.9633" stroke-miterlimit="10" stroke-linecap="round" stroke-linejoin="round"/>
<path d="M44.2296 43.9424C43.1978 43.2364 42.4918 42.1502 42.2202 40.9011" stroke="#302F38" stroke-width="0.9633" stroke-miterlimit="10" stroke-linecap="round" stroke-linejoin="round"/>
<path d="M15.9893 126.003H118.307" stroke="#302F38" stroke-width="0.9633" stroke-miterlimit="10" stroke-linecap="round" stroke-linejoin="round"/>
<g opacity="0.2">
<path d="M273.63 117.476H292.964C297.092 117.476 300.459 114.109 300.459 109.982V33.352C300.459 29.2245 297.092 25.8574 292.964 25.8574H273.63V117.476Z" fill="#302F38" stroke="#302F38" stroke-width="0.9633" stroke-miterlimit="10" stroke-linecap="round" stroke-linejoin="round"/>
<path d="M295.897 107.049V36.2846C295.897 30.5279 291.226 25.8573 285.469 25.8573H183.152C177.395 25.8573 172.724 30.5279 172.724 36.2846V107.049C172.724 112.806 177.395 117.476 183.152 117.476H285.524C291.28 117.476 295.897 112.806 295.897 107.049Z" fill="#302F38"/>
<path opacity="0.15" d="M250.006 55.4556C243.163 49.9161 241.697 36.9906 241.697 36.9906C248.811 35.7958 248.539 29.6046 248.539 29.6046L202.431 29.333C200.585 37.0992 208.677 36.8276 208.677 36.8276L209.709 42.0956C210.578 52.0884 201.399 64.6337 197.761 72.6714C194.122 80.7634 198.25 86.2486 198.25 86.2486C194.339 95.9156 191.787 111.231 190.864 117.422H281.776C283.297 114.218 286.827 106.343 289.651 98.0336C293.29 87.2262 286.61 78.3196 286.61 78.3196L250.006 55.4556Z" fill="#302F38"/>
<path d="M295.897 107.049V36.2846C295.897 30.5279 291.226 25.8573 285.469 25.8573H183.152C177.395 25.8573 172.724 30.5279 172.724 36.2846V107.049C172.724 112.806 177.395 117.476 183.152 117.476H285.524C291.28 117.476 295.897 112.806 295.897 107.049Z" stroke="#302F38" stroke-width="0.9633" stroke-miterlimit="10" stroke-linecap="round" stroke-linejoin="round"/>
</g>
<path d="M270.969 114.87H290.303C294.431 114.87 297.798 111.502 297.798 107.375V30.7452C297.798 26.6178 294.431 23.2506 290.303 23.2506H270.969V114.87Z" fill="#0071DA" stroke="#0071DA" stroke-width="0.9633" stroke-miterlimit="10" stroke-linecap="round" stroke-linejoin="round"/>
<path d="M293.29 104.442V33.6778C293.29 27.9211 288.619 23.2505 282.863 23.2505H180.545C174.788 23.2505 170.118 27.9211 170.118 33.6778V104.442C170.118 110.199 174.788 114.869 180.545 114.869H282.917C288.619 114.869 293.29 110.199 293.29 104.442Z" fill="#50ABFF"/>
<path opacity="0.15" d="M247.399 52.8488C240.556 47.3093 239.09 34.3838 239.09 34.3838C246.204 33.189 245.933 26.9978 245.933 26.9978L199.825 26.7263C197.978 34.4924 206.07 34.2209 206.07 34.2209L207.102 39.4888C207.971 49.4817 198.793 62.027 195.154 70.0647C191.515 78.1567 195.643 83.6419 195.643 83.6419C191.733 93.3088 189.18 108.624 188.257 114.815H279.17C280.69 111.611 284.22 103.736 287.045 95.4269C290.683 84.6194 284.003 75.7128 284.003 75.7128L247.399 52.8488Z" fill="#302F38"/>
<path d="M293.29 104.442V33.6778C293.29 27.9211 288.619 23.2505 282.863 23.2505H180.545C174.788 23.2505 170.118 27.9211 170.118 33.6778V104.442C170.118 110.199 174.788 114.869 180.545 114.869H282.917C288.619 114.869 293.29 110.199 293.29 104.442Z" stroke="#0071DA" stroke-width="0.9633" stroke-miterlimit="10" stroke-linecap="round" stroke-linejoin="round"/>
<path d="M240.502 29.2244C238.981 36.013 239.904 43.2361 242.457 49.6988C245.009 56.2159 249.028 62.0269 253.59 67.2949C237.026 72.7801 221.059 79.7859 205.69 88.0408C200.259 87.8236 197 83.859 196.023 79.5686C195.045 75.2782 196.023 70.7706 197.652 66.6975C199.281 62.6243 201.508 58.8227 203.246 54.8038C206.233 47.9066 207.591 39.9775 204.984 32.8631C204.441 30.1477 203.898 27.4322 203.355 24.7168C202.051 19.6661 202.051 14.018 204.441 9.3474C207.102 4.13375 212.641 0.549374 218.507 0.0605951C224.372 -0.428184 230.346 2.07002 234.256 6.46903C238.166 10.868 240.013 16.9506 239.416 22.7617L240.502 29.2244Z" fill="#961515"/>
<path d="M219.267 41.4982C219.593 45.5714 219.973 49.6989 220.353 53.772C223.014 53.4462 225.676 52.8488 228.228 52.0341L226.762 39.9776L219.267 41.4982Z" fill="#FE9283"/>
<path d="M227.305 44.268L226.762 39.9776L219.267 41.4982C219.376 42.856 219.484 44.2137 219.593 45.5171C221.765 45.8972 224.698 45.8972 227.305 44.268Z" fill="#FF8372"/>
<path d="M205.527 23.2504C204.06 22.9245 202.323 22.7073 201.019 23.4676C199.987 24.1193 199.607 25.2598 199.499 26.2917C199.336 28.3554 200.042 30.5278 201.888 31.8855C203.735 33.2432 206.667 33.6777 208.894 32.5915L205.527 23.2504Z" fill="#FE9283"/>
<path d="M234.94 21.4874C236.598 20.6935 238.451 20.2469 240.255 20.495C242.059 20.7927 243.814 21.8843 244.594 23.5218C245.764 25.9532 244.643 29.1289 242.4 30.6671C240.157 32.1557 237.183 32.1557 234.745 31.0144L234.94 21.4874Z" fill="#FE9283"/>
<path d="M238.438 23.8707C239.329 23.9696 240.269 24.0686 241.061 24.4644C241.902 24.8108 242.644 25.5036 242.891 26.3943" stroke="#302F38" stroke-width="0.9633" stroke-miterlimit="10" stroke-linecap="round" stroke-linejoin="round"/>
<path d="M238.735 27.6808C239.873 26.9386 240.764 25.8005 241.16 24.4644" stroke="#302F38" stroke-width="0.9633" stroke-miterlimit="10" stroke-linecap="round" stroke-linejoin="round"/>
<path d="M235.831 21.0782C236.917 27.0521 234.473 33.9153 232.301 36.7192C227.631 42.7475 219.647 43.3449 213.565 39.7062C207.482 36.0675 203.409 29.659 205.255 22.1643C208.677 19.5032 211.121 15.5387 212.261 10.8138C217.909 17.2222 226.599 20.698 235.831 21.0782Z" fill="#FE9283"/>
<path d="M221.656 23.9562C223.829 22.9243 226.599 23.0872 228.554 24.4992L230.02 22.6527" stroke="#302F38" stroke-width="0.9633" stroke-miterlimit="10" stroke-linecap="round" stroke-linejoin="round"/>
<path d="M227.413 22.0554C227.196 22.5985 226.979 23.0873 226.761 23.6304" stroke="#302F38" stroke-width="0.9633" stroke-miterlimit="10" stroke-linecap="round" stroke-linejoin="round"/>
<path d="M224.969 23.3046C225.024 22.8158 225.078 22.327 225.132 21.8926" stroke="#302F38" stroke-width="0.9633" stroke-miterlimit="10" stroke-linecap="round" stroke-linejoin="round"/>
<path d="M212.587 24.1193C210.632 23.0331 208.242 23.2503 206.559 24.6081L205.201 22.7616" stroke="#302F38" stroke-width="0.9633" stroke-miterlimit="10" stroke-linecap="round" stroke-linejoin="round"/>
<path d="M207.482 22.164C207.699 22.7071 207.862 23.1958 208.079 23.7389" stroke="#302F38" stroke-width="0.9633" stroke-miterlimit="10" stroke-linecap="round" stroke-linejoin="round"/>
<path d="M209.654 23.4674C209.6 22.9787 209.546 22.4899 209.491 22.0554" stroke="#302F38" stroke-width="0.9633" stroke-miterlimit="10" stroke-linecap="round" stroke-linejoin="round"/>
<path d="M215.628 23.1958C215.194 24.4449 214.596 25.694 213.782 26.9431C214.651 27.0517 215.52 27.0517 216.389 26.9431" stroke="#302F38" stroke-width="0.9633" stroke-miterlimit="10" stroke-linecap="round" stroke-linejoin="round"/>
<path d="M214.705 31.1249C217.312 31.668 220.136 30.7448 221.982 28.844" stroke="#302F38" stroke-width="0.9633" stroke-miterlimit="10" stroke-linecap="round" stroke-linejoin="round"/>
<path d="M284.275 74.8982C281.668 70.1191 276.943 66.9692 272.327 64.1451C264.887 59.6918 257.175 55.8359 249.137 52.523C243.706 50.2964 237.732 48.3413 231.975 48.3956L228.228 59.8547L224.101 60.4521L216.226 53.1204C214.108 54.5325 212.153 56.3246 210.415 58.2798C206.776 62.4072 204.061 67.2407 201.671 72.1828C195.263 85.5428 191.244 100.043 189.832 114.761H274.336C277.052 108.95 280.636 103.573 283.297 97.7079C286.501 90.5392 288.076 81.8498 284.275 74.8982Z" fill="#FFFFFD"/>
<path d="M224.101 60.5606L216.226 53.2289C214.108 54.6409 212.153 56.4331 210.415 58.3882C209.22 59.7459 208.134 61.158 207.102 62.6786C208.894 66.969 215.466 83.0444 217.584 90.6476L234.419 88.5839C234.419 88.5839 240.122 68.8698 244.466 50.8393C240.393 49.4273 236.103 48.4497 231.975 48.504L228.228 59.9632L224.101 60.5606Z" fill="#D8D8EF"/>
<path d="M248.431 75.1153C251.907 76.473 255.437 77.8307 258.478 80.0574C261.465 82.284 263.963 85.4883 264.452 89.1813C264.995 93.3087 263.149 97.3276 261.193 100.966C258.695 105.691 256.088 110.307 253.264 114.815" stroke="#302F38" stroke-width="0.9633" stroke-miterlimit="10" stroke-linecap="round" stroke-linejoin="round"/>
<path d="M205.799 82.6642C206.233 93.4174 206.287 104.116 206.016 114.869" stroke="#302F38" stroke-width="0.9633" stroke-miterlimit="10" stroke-linecap="round" stroke-linejoin="round"/>
<path d="M277.54 99.6629C273.847 106.071 268.96 111.557 265.647 114.869H274.336C277.052 109.058 280.636 103.682 283.297 97.8164C286.23 91.245 287.805 83.4789 285.252 76.9075C283.894 83.153 281.451 92.8743 277.54 99.6629Z" fill="#D8D8EF"/>
<path d="M231.976 48.4497C231.595 48.4497 231.161 48.4497 230.781 48.504L224.101 53.772L217.312 52.5229C216.986 52.7401 216.606 52.9574 216.28 53.1746L218.561 114.869H235.614C235.18 104.931 233.822 68.6526 231.976 48.4497Z" fill="#55D2FE"/>
<path d="M217.312 52.523C218.127 54.0436 219.539 55.2927 221.168 55.8358C223.558 56.5961 226.327 55.9987 228.174 54.3152C229.803 52.8488 230.781 50.6765 230.781 48.4498C228.282 48.6127 225.893 49.1558 223.558 50.2963C221.439 50.5679 219.321 51.3825 217.312 52.523Z" fill="#FE9283"/>
<path d="M217.638 90.5933L216.28 53.2289C214.162 54.6409 212.207 56.4331 210.469 58.3882C209.872 59.0399 209.329 59.7459 208.786 60.4519C212.533 70.1732 215.52 80.2746 217.638 90.5933Z" fill="white" stroke="#302F38" stroke-width="0.9633" stroke-miterlimit="10" stroke-linecap="round" stroke-linejoin="round"/>
<path d="M241.805 49.916C238.547 48.9928 235.234 48.3954 231.975 48.4497C232.953 59.3657 233.822 74.9524 234.419 88.5296L241.805 49.916Z" fill="white" stroke="#302F38" stroke-width="0.9633" stroke-miterlimit="10" stroke-linecap="round" stroke-linejoin="round"/>
<path d="M180.545 114.869H282.863" stroke="#302F38" stroke-width="0.9633" stroke-miterlimit="10" stroke-linecap="round" stroke-linejoin="round"/>
<g opacity="0.2">
<path d="M310.397 39.8147H284.057C282.591 39.8147 281.451 38.6199 281.451 37.2079V23.0876C281.451 21.6213 282.645 20.4808 284.057 20.4808H310.397C311.864 20.4808 313.004 21.6756 313.004 23.0876V37.2079C313.004 38.6199 311.864 39.8147 310.397 39.8147Z" fill="#302F38"/>
<path d="M310.397 39.8147H284.057C282.591 39.8147 281.451 38.6199 281.451 37.2079V23.0876C281.451 21.6213 282.645 20.4808 284.057 20.4808H310.397C311.864 20.4808 313.004 21.6756 313.004 23.0876V37.2079C313.004 38.6199 311.864 39.8147 310.397 39.8147Z" stroke="#302F38" stroke-width="0.9633" stroke-miterlimit="10" stroke-linecap="round" stroke-linejoin="round"/>
</g>
<path d="M307.79 37.2077H281.451C279.984 37.2077 278.844 36.0129 278.844 34.6009V20.4806C278.844 19.0143 280.039 17.8738 281.451 17.8738H307.79C309.257 17.8738 310.397 19.0686 310.397 20.4806V34.6009C310.397 36.0129 309.257 37.2077 307.79 37.2077Z" fill="white"/>
<path d="M307.79 37.2077H281.451C279.984 37.2077 278.844 36.0129 278.844 34.6009V20.4806C278.844 19.0143 280.039 17.8738 281.451 17.8738H307.79C309.257 17.8738 310.397 19.0686 310.397 20.4806V34.6009C310.397 36.0129 309.257 37.2077 307.79 37.2077Z" stroke="#302F38" stroke-width="0.9633" stroke-miterlimit="10" stroke-linecap="round" stroke-linejoin="round"/>
<path d="M284.492 48.6127C284.492 48.6127 290.303 47.1464 290.954 37.1535" stroke="#302F38" stroke-width="0.9633" stroke-miterlimit="10" stroke-linecap="round" stroke-linejoin="round"/>
<path d="M283.786 27.541H291.769" stroke="#302F38" stroke-width="0.9633" stroke-miterlimit="10" stroke-linecap="round" stroke-linejoin="round"/>
<path d="M283.786 23.9022H305.455" stroke="#302F38" stroke-width="0.9633" stroke-miterlimit="10" stroke-linecap="round" stroke-linejoin="round"/>
<path d="M283.786 31.1252H305.455" stroke="#302F38" stroke-width="0.9633" stroke-miterlimit="10" stroke-linecap="round" stroke-linejoin="round"/>
<g opacity="0.2">
<path d="M149.263 216.59H123.738V233.751H149.263V216.59Z" fill="#302F38"/>
<path d="M149.263 216.59H123.738V220.717H149.263V216.59Z" fill="#302F38"/>
<path d="M123.738 216.59H119.774V233.751H123.738V216.59Z" fill="#302F38" stroke="#302F38" stroke-width="0.9633" stroke-miterlimit="10" stroke-linecap="round" stroke-linejoin="round"/>
<path d="M90.9356 111.448H68.5061C63.7269 111.448 59.8167 115.304 59.8167 120.137V209.041C59.8167 213.82 63.6726 217.73 68.5061 217.73H90.9356V111.448Z" fill="#302F38" stroke="#302F38" stroke-width="0.9633" stroke-miterlimit="10" stroke-linecap="round" stroke-linejoin="round"/>
<path d="M65.0847 208.987V120.137C65.0847 115.358 68.9406 111.448 73.7741 111.448H199.282C204.061 111.448 207.971 115.304 207.971 120.137V209.041C207.971 213.82 204.115 217.73 199.282 217.73H73.7198C68.9406 217.676 65.0847 213.82 65.0847 208.987Z" fill="#302F38"/>
<path opacity="0.15" d="M206.776 160.543C206.776 160.543 189.343 176.129 180.111 169.721C170.878 163.313 171.095 146.531 165.61 136.919C160.125 127.306 148.503 120.029 134.871 119.214L134.6 114.543C134.6 114.543 137.695 113.403 139.596 111.393H114.451C115.537 112.643 117.655 114.489 121.186 115.63L121.511 120.029C121.511 120.029 94.6286 126.708 91.1528 154.515C88.9261 172.165 74.9688 174.392 65.0303 173.631V190.358C69.1034 194.051 74.3714 197.201 80.1824 197.038C93.7596 196.604 101.526 184.71 101.526 184.71L100.059 198.613H163.003L162.08 186.665C162.08 186.665 168.108 197.853 186.085 193.4C197.326 190.63 204.278 182.592 207.917 176.944V163.258L206.776 160.543Z" fill="#302F38"/>
<path d="M207.917 122.364H65.0847V198.722H207.917V122.364Z" fill="#302F38"/>
<path opacity="0.15" d="M207.863 163.258L206.776 160.543C206.776 160.543 189.343 176.129 180.111 169.721C170.878 163.313 171.096 146.531 165.61 136.919C162.08 130.727 155.943 125.514 148.394 122.364H115.429C107.283 126.111 93.4883 135.235 91.0444 154.623C88.8177 172.274 74.8604 174.5 64.9219 173.74V190.467C68.995 194.16 74.263 197.31 80.074 197.147C93.6512 196.712 101.417 184.819 101.417 184.819L99.951 198.722H162.895L161.972 186.774C161.972 186.774 168 197.962 185.976 193.508C197.218 190.739 204.17 182.701 207.808 177.053V163.258H207.863Z" fill="#302F38"/>
<path d="M65.0847 208.987V120.137C65.0847 115.358 68.9406 111.448 73.7741 111.448H199.282C204.061 111.448 207.971 115.304 207.971 120.137V209.041C207.971 213.82 204.115 217.73 199.282 217.73H73.7198C68.9406 217.676 65.0847 213.82 65.0847 208.987Z" stroke="#302F38" stroke-width="0.9633" stroke-miterlimit="10" stroke-linecap="round" stroke-linejoin="round"/>
<path d="M139.27 206.162C138.293 204.207 135.089 204.044 133.84 205.837C132.59 207.629 133.948 210.507 136.12 210.779C138.293 210.942 140.357 208.335 139.27 206.162Z" fill="#302F38"/>
<path d="M139.27 206.162C138.293 204.207 135.089 204.044 133.84 205.837C132.59 207.629 133.948 210.507 136.12 210.779C138.293 210.942 140.357 208.335 139.27 206.162Z" stroke="#302F38" stroke-width="0.9633" stroke-miterlimit="10" stroke-linecap="round" stroke-linejoin="round"/>
<path d="M178.536 115.955C177.938 115.032 176.309 115.086 175.766 116.064C175.223 117.042 176.037 118.454 177.124 118.508C178.21 118.508 179.242 117.042 178.536 115.955Z" fill="#302F38"/>
<path d="M178.536 115.955C177.938 115.032 176.309 115.086 175.766 116.064C175.223 117.042 176.037 118.454 177.124 118.508C178.21 118.508 179.242 117.042 178.536 115.955Z" stroke="#302F38" stroke-width="0.9633" stroke-miterlimit="10" stroke-linecap="round" stroke-linejoin="round"/>
<path d="M186.356 115.955C185.759 115.032 184.13 115.086 183.586 116.064C183.043 117.042 183.858 118.454 184.944 118.508C186.03 118.508 187.117 117.042 186.356 115.955Z" fill="#302F38"/>
<path d="M186.356 115.955C185.759 115.032 184.13 115.086 183.586 116.064C183.043 117.042 183.858 118.454 184.944 118.508C186.03 118.508 187.117 117.042 186.356 115.955Z" stroke="#302F38" stroke-width="0.9633" stroke-miterlimit="10" stroke-linecap="round" stroke-linejoin="round"/>
<path d="M194.068 115.955C193.471 115.032 191.841 115.086 191.298 116.064C190.755 117.042 191.57 118.454 192.656 118.508C193.742 118.508 194.828 117.042 194.068 115.955Z" fill="#302F38"/>
<path d="M194.068 115.955C193.471 115.032 191.841 115.086 191.298 116.064C190.755 117.042 191.57 118.454 192.656 118.508C193.742 118.508 194.828 117.042 194.068 115.955Z" stroke="#302F38" stroke-width="0.9633" stroke-miterlimit="10" stroke-linecap="round" stroke-linejoin="round"/>
<path d="M93.6511 235.652V234.186C93.6511 233.154 94.5201 232.285 95.5519 232.285H174.408C175.44 232.285 176.309 233.154 176.309 234.186V235.652C176.309 236.684 175.44 237.553 174.408 237.553H95.4976C94.4658 237.498 93.6511 236.684 93.6511 235.652Z" fill="#302F38" stroke="#302F38" stroke-width="0.9633" stroke-miterlimit="10" stroke-linecap="round" stroke-linejoin="round"/>
<path d="M97.344 235.652V234.186C97.344 233.154 98.2129 232.285 99.2448 232.285H178.101C179.133 232.285 180.002 233.154 180.002 234.186V235.652C180.002 236.684 179.133 237.553 178.101 237.553H99.2448C98.1586 237.498 97.344 236.684 97.344 235.652Z" fill="#302F38"/>
<path d="M97.344 235.652V234.186C97.344 233.154 98.2129 232.285 99.2448 232.285H178.101C179.133 232.285 180.002 233.154 180.002 234.186V235.652C180.002 236.684 179.133 237.553 178.101 237.553H99.2448C98.1586 237.498 97.344 236.684 97.344 235.652Z" stroke="#302F38" stroke-width="0.9633" stroke-miterlimit="10" stroke-linecap="round" stroke-linejoin="round"/>
</g>
<path d="M146.602 213.983H121.077V231.145H146.602V213.983Z" fill="#D9D8F0"/>
<path d="M146.602 213.983H121.077V218.111H146.602V213.983Z" fill="#C1BFE4"/>
<path d="M121.131 213.983H117.167V231.145H121.131V213.983Z" fill="#63618C" stroke="#63618C" stroke-width="0.9633" stroke-miterlimit="10" stroke-linecap="round" stroke-linejoin="round"/>
<path d="M88.3286 108.841H65.8991C61.1199 108.841 57.2097 112.697 57.2097 117.53V206.434C57.2097 211.213 61.0656 215.123 65.8991 215.123H88.3286V108.841Z" fill="#63618C" stroke="#63618C" stroke-width="0.9633" stroke-miterlimit="10" stroke-linecap="round" stroke-linejoin="round"/>
<path d="M62.4233 206.38V117.53C62.4233 112.751 66.2793 108.841 71.1127 108.841H196.62C201.399 108.841 205.31 112.697 205.31 117.53V206.434C205.31 211.213 201.454 215.123 196.62 215.123H71.1127C66.3336 215.069 62.4233 211.159 62.4233 206.38Z" fill="#D9D8F0"/>
<path opacity="0.15" d="M204.169 157.936C204.169 157.936 186.736 173.523 177.504 167.114C168.271 160.706 168.488 143.925 163.003 134.312C157.518 124.699 145.896 117.422 132.264 116.607L131.993 111.937C131.993 111.937 135.088 110.796 136.989 108.787H111.844C112.93 110.036 115.049 111.882 118.579 113.023L118.904 117.422C118.904 117.422 92.0216 124.102 88.5459 151.908C86.3192 169.558 72.3618 171.785 62.4233 171.025V187.752C66.4965 191.445 71.7645 194.595 77.5755 194.432C91.1527 193.997 98.9188 182.104 98.9188 182.104L97.4525 196.007H160.342L159.419 184.059C159.419 184.059 165.447 195.246 183.423 190.793C194.665 188.023 201.617 179.986 205.255 174.337V160.489L204.169 157.936Z" fill="#63618C"/>
<path d="M205.255 119.757H62.4233V196.115H205.255V119.757Z" fill="#FF7549"/>
<path opacity="0.15" d="M205.255 160.652L204.169 157.936C204.169 157.936 186.736 173.523 177.504 167.114C168.271 160.706 168.488 143.924 163.003 134.312C159.473 128.121 153.336 122.907 145.787 119.757H112.822C104.676 123.504 90.8811 132.628 88.4372 152.016C86.2106 169.667 72.2532 171.894 62.3147 171.133V187.86C66.3879 191.553 71.6558 194.703 77.4668 194.54C91.044 194.106 98.8102 182.212 98.8102 182.212L97.3439 196.115H160.342L159.419 184.167C159.419 184.167 165.447 195.355 183.423 190.902C194.665 188.132 201.617 180.094 205.255 174.446V160.652Z" fill="#63618C"/>
<path d="M62.4233 206.38V117.53C62.4233 112.751 66.2793 108.841 71.1127 108.841H196.62C201.399 108.841 205.31 112.697 205.31 117.53V206.434C205.31 211.213 201.454 215.123 196.62 215.123H71.1127C66.3336 215.069 62.4233 211.159 62.4233 206.38Z" stroke="#63618C" stroke-width="0.9633" stroke-miterlimit="10" stroke-linecap="round" stroke-linejoin="round"/>
<path d="M136.663 203.555C135.686 201.6 132.482 201.437 131.233 203.23C129.983 205.022 131.341 207.9 133.514 208.172C135.686 208.335 137.75 205.728 136.663 203.555Z" fill="#FF7549"/>
<path d="M136.663 203.555C135.686 201.6 132.482 201.437 131.233 203.23C129.983 205.022 131.341 207.9 133.514 208.172C135.686 208.335 137.75 205.728 136.663 203.555Z" stroke="#63618C" stroke-width="0.9633" stroke-miterlimit="10" stroke-linecap="round" stroke-linejoin="round"/>
<path d="M175.875 113.348C175.277 112.425 173.648 112.48 173.105 113.457C172.562 114.435 173.376 115.847 174.462 115.901C175.603 115.901 176.635 114.435 175.875 113.348Z" fill="#E35D76"/>
<path d="M175.875 113.348C175.277 112.425 173.648 112.48 173.105 113.457C172.562 114.435 173.376 115.847 174.462 115.901C175.603 115.901 176.635 114.435 175.875 113.348Z" stroke="#63618C" stroke-width="0.9633" stroke-miterlimit="10" stroke-linecap="round" stroke-linejoin="round"/>
<path d="M183.749 113.348C183.152 112.425 181.523 112.48 180.98 113.457C180.436 114.435 181.251 115.847 182.337 115.901C183.423 115.901 184.51 114.435 183.749 113.348Z" fill="#FF7549"/>
<path d="M183.749 113.348C183.152 112.425 181.523 112.48 180.98 113.457C180.436 114.435 181.251 115.847 182.337 115.901C183.423 115.901 184.51 114.435 183.749 113.348Z" stroke="#63618C" stroke-width="0.9633" stroke-miterlimit="10" stroke-linecap="round" stroke-linejoin="round"/>
<path d="M191.461 113.348C190.864 112.425 189.235 112.48 188.691 113.457C188.148 114.435 188.963 115.847 190.049 115.901C191.135 115.901 192.221 114.435 191.461 113.348Z" fill="#FF7549"/>
<path d="M191.461 113.348C190.864 112.425 189.235 112.48 188.691 113.457C188.148 114.435 188.963 115.847 190.049 115.901C191.135 115.901 192.221 114.435 191.461 113.348Z" stroke="#63618C" stroke-width="0.9633" stroke-miterlimit="10" stroke-linecap="round" stroke-linejoin="round"/>
<path d="M90.9897 232.991V231.524C90.9897 230.493 91.8587 229.624 92.8906 229.624H171.747C172.779 229.624 173.648 230.493 173.648 231.524V232.991C173.648 234.023 172.779 234.892 171.747 234.892H92.8906C91.8587 234.892 90.9897 234.077 90.9897 232.991Z" fill="#63618C" stroke="#63618C" stroke-width="0.9633" stroke-miterlimit="10" stroke-linecap="round" stroke-linejoin="round"/>
<path d="M94.7371 232.991V231.524C94.7371 230.493 95.606 229.624 96.6379 229.624H175.494C176.526 229.624 177.395 230.493 177.395 231.524V232.991C177.395 234.023 176.526 234.892 175.494 234.892H96.5836C95.5517 234.892 94.7371 234.077 94.7371 232.991Z" fill="#D9D8F0"/>
<path d="M94.7371 232.991V231.524C94.7371 230.493 95.606 229.624 96.6379 229.624H175.494C176.526 229.624 177.395 230.493 177.395 231.524V232.991C177.395 234.023 176.526 234.892 175.494 234.892H96.5836C95.5517 234.892 94.7371 234.077 94.7371 232.991Z" stroke="#63618C" stroke-width="0.9633" stroke-miterlimit="10" stroke-linecap="round" stroke-linejoin="round"/>
<path d="M120.914 107.592C120.751 111.937 120.588 116.336 120.425 120.68C120.425 120.68 132.047 120.68 131.993 120.463C131.939 118.562 130.744 114.869 130.744 114.869C130.581 112.154 130.309 109.384 129.983 106.669L120.914 107.592Z" fill="#FE9283"/>
<path d="M120.914 107.592C120.859 109.601 120.751 111.665 120.697 113.675C123.14 114.381 127.648 115.304 130.689 113.403C130.526 111.176 130.309 108.895 130.038 106.669L120.914 107.592Z" fill="#DF8173"/>
<path d="M141.443 96.3502C143.398 94.6123 144.755 92.2227 145.19 89.6702C145.624 87.1177 145.19 84.4023 143.995 82.067C144.973 81.0894 145.896 80.3291 145.896 79.2429C145.896 78.374 145.244 77.6137 144.43 77.2335C143.615 76.8534 142.746 76.799 141.877 76.7447C142.8 74.3008 143.615 71.5854 142.692 69.1958C142.04 67.5123 140.628 66.2631 139.053 65.5028C137.424 64.7425 135.632 64.4167 133.894 64.308C126.616 63.8193 119.23 66.2631 113.636 70.9337C113.365 69.576 113.148 68.7614 112.822 68.001C112.713 67.7838 112.55 67.5122 112.333 67.4036C112.116 67.3493 111.844 67.4579 111.736 67.6752C111.573 67.8381 111.518 68.1096 111.518 68.3269C111.355 69.1958 111.355 70.1191 111.518 71.0423C109.726 70.7708 107.825 70.7708 106.305 71.5854C104.73 72.4 103.589 74.0293 103.698 75.8215C103.101 76.4189 102.612 77.1792 102.34 77.9938C102.069 78.8085 102.069 79.7317 102.449 80.4921C102.829 81.2524 103.535 81.9041 104.404 81.9584C102.232 85.5428 102.177 90.5392 104.187 94.3951C105.219 98.1424 108.531 100.966 112.116 102.378C115.754 103.791 119.719 103.899 123.629 103.791C126.833 103.682 130.092 103.356 133.133 102.324C136.12 101.292 138.51 98.957 141.443 96.3502Z" fill="#010131"/>
<path d="M105.979 92.3857C103.698 91.4082 100.765 92.0056 99.0274 93.7978C97.2895 95.59 96.7464 98.4683 97.724 100.804C98.7015 103.139 101.037 104.768 103.535 104.985C106.033 105.203 108.586 103.899 109.998 101.835L106.305 94.8296L105.979 92.3857Z" fill="#FE9283"/>
<path d="M100.222 98.4138C101.308 96.6216 103.535 95.6441 105.544 95.9699" stroke="#302F38" stroke-width="0.9633" stroke-miterlimit="10" stroke-linecap="round" stroke-linejoin="round"/>
<path d="M102.557 96.4046C102.829 97.6537 103.481 98.7942 104.404 99.6631" stroke="#302F38" stroke-width="0.9633" stroke-miterlimit="10" stroke-linecap="round" stroke-linejoin="round"/>
<path d="M142.04 90.1047C144.321 89.1272 147.254 89.7246 148.992 91.5168C150.73 93.3089 151.273 96.1873 150.295 98.5226C149.317 100.858 146.982 102.487 144.484 102.704C141.986 102.922 139.433 101.618 138.021 99.5545L142.04 90.1047Z" fill="#FE9283"/>
<path d="M147.851 96.1331C146.765 94.3409 144.538 93.3633 142.529 93.6892" stroke="#302F38" stroke-width="0.9633" stroke-miterlimit="10" stroke-linecap="round" stroke-linejoin="round"/>
<path d="M145.516 94.0693C145.244 95.3184 144.592 96.4589 143.669 97.3278" stroke="#302F38" stroke-width="0.9633" stroke-miterlimit="10" stroke-linecap="round" stroke-linejoin="round"/>
<path d="M142.04 90.1048C137.858 88.5299 134.654 84.5653 134.056 80.112C128.3 83.7507 121.185 84.9455 114.723 83.2619C114.723 84.2938 114.94 84.9455 115.157 85.5972C115.211 85.8687 115.32 86.1403 115.157 86.3575C114.994 86.5748 114.614 86.5205 114.397 86.4118C113.636 86.1403 112.442 85.2714 111.899 84.674C109.509 86.5205 108.694 90.1591 108.694 93.309C108.694 93.7435 108.694 94.178 108.423 94.5038C107.988 95.0469 107.065 94.7754 106.685 94.178C106.305 93.5806 106.305 92.8746 106.087 92.3315C105.87 96.4046 107.554 100.369 109.889 103.736C112.007 106.723 114.668 109.33 117.927 110.959C121.185 112.589 125.041 113.132 128.571 112.046C132.59 110.796 135.74 107.538 137.749 103.845C139.65 100.206 140.682 96.0788 142.04 90.1048Z" fill="#FE9283"/>
<path d="M125.041 89.7247C125.856 90.648 126.562 91.7342 126.942 92.9289C126.236 92.9833 125.584 93.0919 124.878 93.1462C124.933 93.1462 124.987 93.1462 125.041 93.2005" stroke="#302F38" stroke-width="0.9633" stroke-miterlimit="10" stroke-linecap="round" stroke-linejoin="round"/>
<path d="M114.071 90.8107C114.94 90.0504 116.026 89.5616 117.167 89.5616C118.307 89.5616 119.448 89.9418 120.317 90.6478" stroke="#302F38" stroke-width="0.9633" stroke-miterlimit="10" stroke-linecap="round" stroke-linejoin="round"/>
<path d="M131.504 90.3221C132.373 89.779 133.459 89.5075 134.491 89.5618C135.523 89.6161 136.555 89.9963 137.37 90.648" stroke="#302F38" stroke-width="0.9633" stroke-miterlimit="10" stroke-linecap="round" stroke-linejoin="round"/>
<path d="M118.361 83.1533C115.592 82.3387 112.333 83.3705 110.649 85.7058C108.966 87.9868 108.966 91.3539 110.595 93.6349C112.279 95.9159 115.537 97.002 118.307 96.1874C121.077 95.3728 123.195 92.7116 123.303 89.8876C123.412 87.1178 121.566 84.1309 118.361 83.1533Z" stroke="#0071DA" stroke-width="1.9267" stroke-miterlimit="10" stroke-linecap="round" stroke-linejoin="round"/>
<path d="M136.989 83.1533C134.219 82.3387 130.961 83.3705 129.277 85.7058C127.594 87.9868 127.594 91.3539 129.223 93.6349C130.907 95.9159 134.165 97.002 136.935 96.1874C139.705 95.3728 141.823 92.7116 141.931 89.8876C142.04 87.1178 140.193 84.1308 136.989 83.1533Z" stroke="#0071DA" stroke-width="1.9267" stroke-miterlimit="10" stroke-linecap="round" stroke-linejoin="round"/>
<path d="M123.303 89.3446C125.204 88.2584 126.182 88.1498 128.028 89.236" stroke="#0071DA" stroke-width="1.9267" stroke-miterlimit="10" stroke-linecap="round" stroke-linejoin="round"/>
<path d="M130.364 98.034C127.159 97.8168 123.955 98.1426 120.914 99.2288C121.783 101.184 124.009 102.433 126.127 102.161C128.246 101.89 130.092 100.152 130.364 98.034Z" fill="#302F38"/>
<path d="M120.914 99.2286C121.022 99.5545 121.24 99.826 121.403 100.098C124.172 99.1743 127.159 98.9028 130.038 99.1743C130.201 98.8485 130.309 98.4683 130.309 98.0881C127.214 97.8166 123.955 98.1424 120.914 99.2286Z" fill="#FFFFFD"/>
<path d="M126.128 100.098C125.041 100.207 123.955 100.75 123.303 101.619C124.172 102.053 125.204 102.27 126.182 102.162C127.214 102.053 128.137 101.564 128.897 100.913C128.083 100.315 127.051 100.044 126.128 100.098Z" fill="#E35D76"/>
<path d="M50.5296 158.805L40.211 147.183C39.8308 146.749 39.4506 146.097 39.8308 145.663C40.1567 145.282 40.8084 145.445 41.2971 145.717C42.8721 146.586 44.5557 148.052 45.9134 149.356C43.9583 146.803 41.8402 143.762 40.1567 140.992C39.8308 140.449 39.5593 139.689 40.048 139.308C40.4825 138.983 41.0799 139.308 41.4601 139.634C43.7953 141.535 46.1849 144.359 47.8685 146.966C46.2935 144.522 44.5014 141.481 43.3066 138.82C43.1436 138.494 42.9807 138.114 42.9807 137.734C42.9807 137.353 43.0893 136.919 43.4152 136.702C43.741 136.484 44.2298 136.539 44.5557 136.702C44.8815 136.919 45.1531 137.19 45.4246 137.516C47.2168 139.689 49.0633 142.35 50.8555 144.794C49.6607 142.404 48.4116 139.526 47.597 136.973C47.3797 136.376 47.2711 135.561 47.8685 135.29C48.4116 135.018 49.009 135.561 49.3892 136.05C51.127 138.385 52.6477 140.829 54.3856 143.327C56.395 145.554 58.3501 147.835 60.3595 150.062L50.5296 158.805Z" fill="#FE9283"/>
<path d="M45.2615 150.442C46.8364 147.618 49.3889 145.391 52.3759 144.196" stroke="#302F38" stroke-width="0.9633" stroke-miterlimit="10" stroke-linecap="round" stroke-linejoin="round"/>
<path d="M45.0987 152.668L40.2652 147.238C39.885 146.803 39.5048 146.151 39.885 145.717C40.2109 145.337 40.8626 145.5 41.3513 145.771C42.9263 146.64 44.6099 148.107 45.9676 149.41C44.0125 146.857 41.8944 143.816 40.2109 141.046C39.885 140.503 39.6135 139.743 40.1022 139.363C40.5367 139.037 41.1341 139.363 41.5143 139.689C43.8495 141.59 46.2391 144.414 47.9227 147.02C46.3478 144.576 44.5556 141.535 43.3608 138.874C43.1978 138.548 43.0349 138.168 43.0349 137.788C43.0349 137.408 43.1435 136.973 43.4694 136.756C43.7952 136.539 44.284 136.593 44.6099 136.756C44.9357 136.973 45.2073 137.245 45.4788 137.571C47.271 139.743 49.1175 142.404 50.9097 144.848C49.7149 142.458 48.4658 139.58 47.6512 137.028C47.4339 136.43 47.3253 135.616 47.9227 135.344C48.4658 135.072 49.0632 135.616 49.4434 136.104C51.1812 138.44 52.7019 140.883 54.4398 143.382C54.9828 144.033 55.5802 144.631 56.1233 145.282" stroke="#302F38" stroke-width="0.9633" stroke-miterlimit="10" stroke-linecap="round" stroke-linejoin="round"/>
<path d="M59.9793 149.736C58.9474 148.541 57.6983 146.749 57.2638 145.283C56.8837 143.816 56.7207 142.296 56.6664 140.775C56.6664 140.395 56.6121 140.015 56.4492 139.689C56.2863 139.363 55.9604 139.091 55.5803 139.091C55.0372 139.146 54.7656 139.797 54.657 140.286C54.3311 141.861 54.2768 143.49 54.4941 145.12C52.4303 146.097 51.2355 148.052 51.0183 150.116L59.9793 149.736Z" fill="#FE9283"/>
<path d="M59.9793 149.736C58.9474 148.541 57.6983 146.749 57.2638 145.283C56.8837 143.816 56.7207 142.296 56.6664 140.775C56.6664 140.395 56.6121 140.015 56.4492 139.689C56.2863 139.363 55.9604 139.091 55.5803 139.091C55.0372 139.146 54.7656 139.797 54.657 140.286C54.3311 141.861 54.2768 143.49 54.4941 145.12C52.4303 146.097 51.2355 148.052 51.0183 150.116" stroke="#302F38" stroke-width="0.9633" stroke-miterlimit="10" stroke-linecap="round" stroke-linejoin="round"/>
<path d="M209.872 154.841L216.66 140.883C216.932 140.395 217.095 139.634 216.66 139.308C216.226 139.037 215.683 139.363 215.302 139.743C213.999 140.992 212.804 142.893 211.827 144.522C213.021 141.535 214.271 138.059 215.085 134.909C215.248 134.312 215.302 133.497 214.705 133.28C214.216 133.117 213.727 133.552 213.402 133.986C211.664 136.43 210.143 139.797 209.22 142.784C210.089 140.015 210.958 136.593 211.392 133.715C211.446 133.335 211.501 132.954 211.447 132.574C211.392 132.194 211.121 131.814 210.74 131.705C210.36 131.597 209.926 131.76 209.654 132.031C209.383 132.303 209.22 132.683 209.057 133.063C207.916 135.615 206.885 138.711 205.744 141.535C206.233 138.928 206.667 135.778 206.776 133.117C206.83 132.466 206.667 131.651 206.07 131.542C205.473 131.434 205.038 132.14 204.821 132.683C203.789 135.398 202.974 138.168 201.942 141.046C200.639 143.762 199.336 146.423 198.032 149.138L209.872 154.841Z" fill="#FE9283"/>
<path d="M212.75 145.337C210.523 143.056 207.428 141.59 204.223 141.264" stroke="#302F38" stroke-width="0.9633" stroke-miterlimit="10" stroke-linecap="round" stroke-linejoin="round"/>
<path d="M213.51 147.455L216.714 140.883C216.986 140.395 217.149 139.634 216.714 139.309C216.28 139.037 215.737 139.363 215.357 139.743C214.053 140.992 212.859 142.893 211.881 144.522C213.076 141.535 214.325 138.059 215.14 134.91C215.302 134.312 215.357 133.497 214.759 133.28C214.271 133.117 213.782 133.552 213.456 133.986C211.718 136.43 210.197 139.797 209.274 142.784C210.143 140.015 211.012 136.593 211.447 133.715C211.501 133.335 211.555 132.954 211.501 132.574C211.447 132.194 211.175 131.814 210.795 131.705C210.415 131.597 209.98 131.76 209.709 132.031C209.437 132.303 209.274 132.683 209.111 133.063C207.971 135.616 206.939 138.711 205.798 141.535C206.287 138.928 206.722 135.778 206.83 133.117C206.885 132.466 206.722 131.651 206.124 131.542C205.527 131.434 205.092 132.14 204.875 132.683C203.843 135.398 203.029 138.168 201.997 141.046C201.617 141.807 201.236 142.567 200.911 143.327" stroke="#302F38" stroke-width="0.9633" stroke-miterlimit="10" stroke-linecap="round" stroke-linejoin="round"/>
<path d="M198.358 148.65C199.01 147.183 199.77 145.12 199.77 143.599C199.77 142.078 199.499 140.558 199.118 139.091C199.01 138.711 198.956 138.385 199.01 138.005C199.064 137.625 199.336 137.299 199.716 137.19C200.259 137.082 200.693 137.625 200.911 138.114C201.671 139.526 202.16 141.101 202.323 142.73C204.549 143.11 206.233 144.631 206.993 146.586L198.358 148.65Z" fill="#FE9283"/>
<path d="M198.358 148.65C199.01 147.183 199.77 145.12 199.77 143.599C199.77 142.078 199.499 140.558 199.118 139.091C199.01 138.711 198.956 138.385 199.01 138.005C199.064 137.625 199.336 137.299 199.716 137.19C200.259 137.082 200.693 137.625 200.911 138.114C201.671 139.526 202.16 141.101 202.323 142.73C204.549 143.11 206.233 144.631 206.993 146.586" stroke="#302F38" stroke-width="0.9633" stroke-miterlimit="10" stroke-linecap="round" stroke-linejoin="round"/>
<path d="M197.706 146.966C195.643 151.854 192.384 156.796 188.365 161.086C186.41 163.204 184.129 165.214 181.305 165.703C178.698 166.137 175.983 165.051 173.973 163.313C171.964 161.575 170.552 159.24 169.357 156.85C165.338 148.541 163.926 138.983 158.713 131.325C155.237 126.274 150.186 122.31 144.429 120.192C140.736 118.834 136.772 118.237 132.862 118.4L125.204 124.156L118.904 119.975C111.736 121.278 105.327 124.754 100.439 129.804C91.5327 139.037 88.2742 152.18 81.8657 163.313C80.7795 165.16 79.0417 167.223 76.9779 166.68C75.9461 166.409 75.1857 165.485 74.534 164.671C70.1893 159.131 65.8446 153.592 61.2827 148.487C56.0691 151.582 51.5614 155.873 47.9771 161.249C51.1813 165.051 53.6252 169.45 56.0691 173.795C58.5673 178.139 61.1741 182.43 64.7041 185.96C68.2342 189.436 72.8505 192.097 77.8469 192.368C83.495 192.694 88.9259 189.924 93.0533 186.068C97.1808 182.212 100.168 177.325 103.155 172.546L155.997 177.651C159.799 185.145 168.543 189.436 176.906 189.11C185.324 188.784 193.199 184.439 199.064 178.411C204.929 172.383 208.894 164.779 212.044 156.959C209.111 151.365 203.626 147.998 197.706 146.966Z" fill="#FFFFFD"/>
<path d="M136.5 132.085L140.954 126.817L133.459 118.4C133.242 118.4 133.079 118.4 132.862 118.454L125.204 124.156L118.959 119.975C118.035 120.137 117.058 120.355 116.135 120.626L111.084 127.741L116.732 132.031L113.528 139.96C113.528 139.96 117.873 154.624 130.201 162.444C130.201 162.444 138.781 149.193 141.877 138.874L136.5 132.085Z" fill="#D8D8EF"/>
<path d="M177.015 189.055C185.433 188.729 193.307 184.385 199.173 178.356C201.617 175.858 203.735 173.088 205.581 170.102C197.924 177.379 188.365 183.787 179.459 182.375C160.396 179.334 154.097 160.706 154.097 160.706L130.635 168.146L102.612 160.706C102.612 160.706 89.0889 186.394 75.566 185.96C69.1033 185.742 62.5319 180.909 57.4812 175.913C59.5992 179.497 61.8802 182.973 64.8672 185.905C68.3973 189.381 73.0135 192.042 78.0099 192.314C83.658 192.64 89.0889 189.87 93.2164 186.014C97.3438 182.158 100.331 177.27 103.318 172.491L156.16 177.596C159.908 185.036 168.651 189.327 177.015 189.055Z" fill="#D8D8EF"/>
<path d="M125.204 124.157L118.904 119.975V131.597C118.904 131.597 120.696 148.107 130.092 161.575C130.092 161.575 134.328 148.595 134.6 130.185L132.862 118.454L125.204 124.157Z" fill="#FFF961"/>
<path d="M133.568 123.342L132.862 118.4C130.635 118.508 128.463 118.834 126.345 119.377C123.792 119.323 121.348 119.486 118.904 119.92V123.939C119.447 124.374 120.045 124.808 120.696 125.188C123.195 126.763 126.345 127.523 129.169 126.6C130.961 126.111 132.427 124.862 133.568 123.342Z" fill="#FE9283"/>
<path d="M158.332 196.115C158.007 182.756 156.757 169.45 154.531 156.253L130.309 165.214L100.819 158.099C100.439 170.536 100.059 182.973 99.7876 196.061H158.332V196.115Z" fill="#FFFFFD"/>
<path d="M100.819 158.154C100.439 170.59 100.059 183.027 99.7876 196.115" stroke="#302F38" stroke-width="0.9633" stroke-miterlimit="10" stroke-linecap="round" stroke-linejoin="round"/>
<path d="M158.333 196.115C158.007 182.756 156.758 169.45 154.531 156.253" stroke="#302F38" stroke-width="0.9633" stroke-miterlimit="10" stroke-linecap="round" stroke-linejoin="round"/>
<path d="M130.092 161.521C123.086 154.406 118.144 146.26 113.636 137.354C114.614 134.747 115.483 132.574 116.352 130.456C114.614 128.881 112.876 127.469 111.03 126.22C113.636 121.713 116.678 117.965 120.534 115.25C120.479 119.486 120.751 123.722 120.859 128.121C124.335 139.091 126.833 149.953 130.092 161.521Z" fill="white" stroke="#302F38" stroke-width="0.9633" stroke-miterlimit="10" stroke-linecap="round" stroke-linejoin="round"/>
<path d="M130.744 114.87C131.45 119.377 131.395 124.048 131.721 129.153C131.45 136.322 131.178 143.545 130.798 151.148C130.689 154.461 129.983 157.611 130.092 161.575C133.785 153.266 137.695 144.902 140.302 136.267C139.053 134.421 137.695 132.629 136.446 130.782C137.749 128.881 139.053 126.981 140.139 125.406C137.804 121.278 135.088 117.585 130.744 114.87Z" fill="white" stroke="#302F38" stroke-width="0.9633" stroke-miterlimit="10" stroke-linecap="round" stroke-linejoin="round"/>
<path d="M130.092 161.521C130.635 172.926 131.612 184.656 132.264 196.116" stroke="#302F38" stroke-width="0.9633" stroke-miterlimit="10" stroke-linecap="round" stroke-linejoin="round"/>
<g opacity="0.2">
<path d="M179.405 61.321H153.065C151.599 61.321 150.458 60.1262 150.458 58.7142V44.5939C150.458 43.1276 151.653 41.9871 153.065 41.9871H179.405C180.871 41.9871 182.011 43.1819 182.011 44.5939V58.7142C182.066 60.1262 180.871 61.321 179.405 61.321Z" fill="#302F38"/>
<path d="M179.405 61.321H153.065C151.599 61.321 150.458 60.1262 150.458 58.7142V44.5939C150.458 43.1276 151.653 41.9871 153.065 41.9871H179.405C180.871 41.9871 182.011 43.1819 182.011 44.5939V58.7142C182.066 60.1262 180.871 61.321 179.405 61.321Z" stroke="#302F38" stroke-width="0.9633" stroke-miterlimit="10" stroke-linecap="round" stroke-linejoin="round"/>
</g>
<path d="M176.798 58.7142H150.458C148.992 58.7142 147.851 57.5194 147.851 56.1074V41.9871C147.851 40.5207 149.046 39.3803 150.458 39.3803H176.798C178.264 39.3803 179.404 40.5751 179.404 41.9871V56.1074C179.404 57.5194 178.264 58.7142 176.798 58.7142Z" fill="white"/>
<path d="M176.798 58.7142H150.458C148.992 58.7142 147.851 57.5194 147.851 56.1074V41.9871C147.851 40.5207 149.046 39.3803 150.458 39.3803H176.798C178.264 39.3803 179.404 40.5751 179.404 41.9871V56.1074C179.404 57.5194 178.264 58.7142 176.798 58.7142Z" stroke="#302F38" stroke-width="0.9633" stroke-miterlimit="10" stroke-linecap="round" stroke-linejoin="round"/>
<path d="M153.499 70.119C153.499 70.119 159.31 68.6527 159.962 58.6599" stroke="#302F38" stroke-width="0.9633" stroke-miterlimit="10" stroke-linecap="round" stroke-linejoin="round"/>
<path d="M152.793 49.047H174.462" stroke="#302F38" stroke-width="0.9633" stroke-miterlimit="10" stroke-linecap="round" stroke-linejoin="round"/>
<path d="M152.793 45.4085H174.462" stroke="#302F38" stroke-width="0.9633" stroke-miterlimit="10" stroke-linecap="round" stroke-linejoin="round"/>
<path d="M152.793 52.6315H167.131" stroke="#302F38" stroke-width="0.9633" stroke-miterlimit="10" stroke-linecap="round" stroke-linejoin="round"/>
<g opacity="0.2">
<path d="M334.619 226.582H353.953C358.081 226.582 361.448 223.215 361.448 219.088V142.458C361.448 138.331 358.081 134.964 353.953 134.964H334.619V226.582Z" fill="#302F38" stroke="#302F38" stroke-width="0.9633" stroke-miterlimit="10" stroke-linecap="round" stroke-linejoin="round"/>
<path d="M356.94 216.209V145.445C356.94 139.688 352.269 135.018 346.513 135.018H244.141C238.384 135.018 233.713 139.688 233.713 145.445V216.209C233.713 221.966 238.384 226.637 244.141 226.637H346.513C352.269 226.582 356.94 221.966 356.94 216.209Z" fill="#302F38"/>
<path d="M356.94 216.209V145.445C356.94 139.688 352.269 135.018 346.513 135.018H244.141C238.384 135.018 233.713 139.688 233.713 145.445V216.209C233.713 221.966 238.384 226.637 244.141 226.637H346.513C352.269 226.582 356.94 221.966 356.94 216.209Z" stroke="#302F38" stroke-width="0.9633" stroke-miterlimit="10" stroke-linecap="round" stroke-linejoin="round"/>
</g>
<path d="M332.012 223.976H351.346C355.474 223.976 358.841 220.608 358.841 216.481V139.851C358.841 135.724 355.474 132.357 351.346 132.357H332.012V223.976Z" fill="#8B0DB7" stroke="#8B0DB7" stroke-width="0.9633" stroke-miterlimit="10" stroke-linecap="round" stroke-linejoin="round"/>
<path d="M354.333 213.548V142.784C354.333 137.027 349.663 132.357 343.906 132.357H241.534C235.777 132.357 231.106 137.027 231.106 142.784V213.548C231.106 219.305 235.777 223.976 241.534 223.976H343.906C349.663 223.976 354.333 219.305 354.333 213.548Z" fill="#B975FD"/>
<path d="M354.333 213.548V142.784C354.333 137.027 349.663 132.357 343.906 132.357H241.534C235.777 132.357 231.106 137.027 231.106 142.784V213.548C231.106 219.305 235.777 223.976 241.534 223.976H343.906C349.663 223.976 354.333 219.305 354.333 213.548Z" stroke="#8B0DB7" stroke-width="0.9633" stroke-miterlimit="10" stroke-linecap="round" stroke-linejoin="round"/>
<path d="M303.011 130.456C303.88 125.351 302.957 119.92 300.295 115.467C297.58 111.068 293.018 107.755 287.913 106.832C282.808 105.909 277.269 107.592 273.684 111.339C271.403 113.729 269.991 116.77 269.122 119.975C268.036 123.939 267.819 128.175 268.851 132.629C265.918 134.855 263.148 137.462 261.628 140.775C260.053 144.088 259.944 148.269 262.116 151.256C263.474 153.157 265.646 154.406 267.819 155.275C274.662 158.154 282.591 158.425 290.303 155.873C293.29 156.416 296.222 156.959 299.264 156.959C302.251 157.013 305.346 156.524 308.007 155.112C310.668 153.7 312.895 151.311 313.601 148.378C314.307 145.717 313.655 142.784 312.08 140.558C310.506 138.331 307.953 136.81 305.238 136.376L303.011 130.456Z" fill="#542828"/>
<path d="M332.446 185.036C330.328 179.171 327.776 173.414 324.191 168.363C320.553 163.313 315.828 158.914 310.125 156.416C306.378 154.786 302.359 154.08 298.286 153.863L295.408 164.182L284.437 165.268L277.92 156.144C270.751 158.153 264.126 161.521 259.184 167.006C252.232 174.718 249.68 185.416 248.865 195.789C248.159 205.185 248.648 214.689 247.507 224.03H340.375C339.615 210.724 336.954 197.527 332.446 185.036Z" fill="#FFFFFD"/>
<path d="M305.618 177.053C306.758 175.206 308.659 171.622 308.659 171.622C305.835 166.843 299.209 156.904 299.209 156.904L297.417 157.067L295.462 164.182L284.492 165.268L279.658 158.533L279.007 158.588L271.892 175.315L275.639 178.791C273.413 183.841 272.164 188.783 272.164 188.783C275.531 207.14 284.437 224.03 284.437 224.03H304.26C309.745 213.983 310.831 185.308 310.831 185.308C309.039 181.452 305.618 177.053 305.618 177.053Z" fill="#D8D8EF"/>
<path d="M302.902 183.57L298.286 153.809C297.526 153.754 296.765 153.754 296.005 153.754L287.641 159.24L279.658 155.655C279.061 155.818 278.518 155.927 277.92 156.09L278.246 195.681L284.383 223.921H304.26L302.902 183.57Z" fill="#B5D1FA"/>
<path d="M290.14 162.281C292.041 161.792 293.616 160.326 294.539 158.642C295.354 157.176 295.788 155.492 295.951 153.809C293.779 153.809 291.606 153.917 289.434 154.08C286.175 154.406 282.863 154.895 279.604 155.71C280.527 157.665 281.831 159.403 283.569 160.706C285.469 162.118 287.913 162.878 290.14 162.281Z" fill="#F67664"/>
<path d="M265.321 182.918C264.506 196.604 264.234 210.29 264.397 223.976" stroke="#302F38" stroke-width="0.9633" stroke-miterlimit="10" stroke-linecap="round" stroke-linejoin="round"/>
<path d="M316.317 179.822C318.163 194.54 320.01 209.258 321.856 223.975" stroke="#302F38" stroke-width="0.9633" stroke-miterlimit="10" stroke-linecap="round" stroke-linejoin="round"/>
<path d="M277.92 156.144C275.857 161.303 273.847 167.82 272.109 173.848C273.902 175.423 275.748 176.998 277.486 179.062C275.748 181.832 274.336 184.819 273.413 188.892C273.793 190.25 274.173 191.607 274.771 193.997C277.812 204.207 280.636 213.983 284.383 224.03C282.319 201.926 280.364 179.008 277.92 156.144Z" fill="white" stroke="#302F38" stroke-width="0.9633" stroke-miterlimit="10" stroke-linecap="round" stroke-linejoin="round"/>
<path d="M298.286 153.809C300.241 177.162 302.359 200.46 304.26 223.976C307.084 210.779 309.094 198.125 309.419 185.254C307.627 182.538 305.835 179.823 304.043 176.673C305.672 174.555 307.084 172.328 308.116 170.264C305.509 164.833 302.142 158.914 298.286 153.809Z" fill="white" stroke="#302F38" stroke-width="0.9633" stroke-miterlimit="10" stroke-linecap="round" stroke-linejoin="round"/>
<path d="M280.093 179.769C278.572 177.27 274.879 176.347 272.327 177.813C269.774 179.28 268.742 182.918 270.154 185.525C271.566 188.132 275.205 189.218 277.812 187.861C280.473 186.503 281.939 182.755 280.093 179.769Z" fill="#828ACE"/>
<path d="M280.093 179.769C278.572 177.27 274.879 176.347 272.327 177.813C269.774 179.28 268.742 182.918 270.154 185.525C271.566 188.132 275.205 189.218 277.812 187.861C280.473 186.503 281.939 182.755 280.093 179.769Z" stroke="#302F38" stroke-width="0.9633" stroke-miterlimit="10" stroke-linecap="round" stroke-linejoin="round"/>
<path d="M277.595 180.692C278.844 182.267 277.812 185.036 275.802 185.308C273.847 185.634 271.946 183.299 272.652 181.452C273.358 179.606 276.345 179.117 277.595 180.692Z" fill="#302F38"/>
<path d="M275.205 181.181C275.368 176.13 275.585 167.712 277.323 162.933C279.061 158.154 282.645 153.809 287.479 152.397" stroke="#302F38" stroke-width="0.9633" stroke-miterlimit="10" stroke-linecap="round" stroke-linejoin="round"/>
<path d="M291.606 153.157C294.539 154.189 296.82 156.633 298.123 159.511C299.372 162.335 299.753 165.92 299.59 169.015" stroke="#302F38" stroke-width="0.9633" stroke-miterlimit="10" stroke-linecap="round" stroke-linejoin="round"/>
<path d="M298.666 208.878C297.797 208.118 296.168 208.552 295.788 209.693C295.462 210.833 296.548 212.082 297.743 211.919C298.938 211.756 299.97 209.964 298.666 208.878Z" fill="#302F38"/>
<path d="M308.605 208.498C307.736 207.738 306.107 208.172 305.727 209.313C305.401 210.453 306.487 211.702 307.682 211.539C308.876 211.431 309.908 209.584 308.605 208.498Z" fill="#302F38"/>
<path d="M294.702 191.879C294.919 197.69 295.788 203.773 297.091 209.475" stroke="#302F38" stroke-width="0.9633" stroke-miterlimit="10" stroke-linecap="round" stroke-linejoin="round"/>
<path d="M307.193 190.304C308.17 196.441 308.387 203.23 307.899 209.421" stroke="#302F38" stroke-width="0.9633" stroke-miterlimit="10" stroke-linecap="round" stroke-linejoin="round"/>
<path d="M294.702 191.879C294.159 185.851 295.897 179.823 299.698 175.098C303.771 179.225 306.487 184.548 307.193 190.304" stroke="#E03D6C" stroke-width="2.89" stroke-miterlimit="10" stroke-linecap="round" stroke-linejoin="round"/>
<path d="M299.698 175.098C299.535 173.414 299.426 171.188 299.589 168.961" stroke="#E03D6C" stroke-width="2.89" stroke-miterlimit="10" stroke-linecap="round" stroke-linejoin="round"/>
<path d="M283.406 147.455C283.514 150.605 283.677 153.755 284.003 157.068C286.773 156.959 289.542 156.85 292.421 156.524C292.149 153.157 291.878 149.79 291.606 146.423L283.406 147.455Z" fill="#F77664"/>
<path d="M291.769 149.518C291.66 148.487 291.606 147.4 291.497 146.368L283.351 147.455C283.405 148.432 283.405 149.41 283.46 150.387C285.361 150.876 289.162 151.528 291.769 149.518Z" fill="#E06154"/>
<path d="M272.272 132.031C270.263 130.89 267.656 130.945 265.701 132.194C263.8 133.443 262.659 135.887 263.094 138.168C263.474 140.449 265.375 142.35 267.601 142.784C269.882 143.164 272.326 141.969 273.358 139.906L272.272 132.031Z" fill="#F77664"/>
<path d="M265.592 137.245C266.515 135.996 267.982 135.235 269.502 135.181" stroke="#302F38" stroke-width="0.9633" stroke-miterlimit="10" stroke-linecap="round" stroke-linejoin="round"/>
<path d="M267.601 135.67C267.873 136.756 268.47 137.788 269.339 138.548" stroke="#302F38" stroke-width="0.9633" stroke-miterlimit="10" stroke-linecap="round" stroke-linejoin="round"/>
<path d="M300.73 131.488C302.739 130.347 305.346 130.402 307.301 131.651C309.202 132.9 310.343 135.344 309.908 137.625C309.528 139.906 307.627 141.807 305.401 142.241C303.12 142.621 300.676 141.426 299.644 139.363L300.73 131.488Z" fill="#F77664"/>
<path d="M307.41 136.701C306.487 135.452 305.02 134.692 303.5 134.638" stroke="#302F38" stroke-width="0.9633" stroke-miterlimit="10" stroke-linecap="round" stroke-linejoin="round"/>
<path d="M305.455 135.126C305.183 136.213 304.586 137.244 303.717 138.005" stroke="#302F38" stroke-width="0.9633" stroke-miterlimit="10" stroke-linecap="round" stroke-linejoin="round"/>
<path d="M301.164 127.904C301.327 131.977 301.056 136.158 299.589 139.906C298.069 143.707 295.19 147.075 291.389 148.432C288.293 149.518 284.872 149.301 281.776 148.106C278.083 146.694 274.933 143.925 273.032 140.449C271.132 136.973 270.534 132.846 271.023 128.99C275.096 127.904 278.3 124.211 278.463 119.703C280.853 122.907 284.166 125.46 287.913 126.872C291.66 128.392 295.788 128.664 301.164 127.904Z" fill="#F77664"/>
<path d="M274.553 130.076C274.987 130.728 275.476 131.379 276.074 132.14C276.725 131.488 277.594 131.054 278.518 130.945C279.441 130.782 280.364 130.945 281.179 131.379" stroke="#302F38" stroke-width="0.9633" stroke-miterlimit="10" stroke-linecap="round" stroke-linejoin="round"/>
<path d="M277.54 131.162C277.377 130.673 277.16 130.13 276.943 129.641" stroke="#302F38" stroke-width="0.9633" stroke-miterlimit="10" stroke-linecap="round" stroke-linejoin="round"/>
<path d="M279.115 129.75C279.115 130.13 279.115 130.456 279.061 130.836" stroke="#302F38" stroke-width="0.9633" stroke-miterlimit="10" stroke-linecap="round" stroke-linejoin="round"/>
<path d="M298.286 130.293C297.851 130.945 297.363 131.596 296.765 132.357C296.113 131.705 295.245 131.271 294.321 131.162C293.398 131.053 292.475 131.162 291.66 131.596" stroke="#302F38" stroke-width="0.9633" stroke-miterlimit="10" stroke-linecap="round" stroke-linejoin="round"/>
<path d="M295.245 131.379C295.408 130.89 295.625 130.347 295.842 129.858" stroke="#302F38" stroke-width="0.9633" stroke-miterlimit="10" stroke-linecap="round" stroke-linejoin="round"/>
<path d="M293.67 129.967C293.67 130.347 293.67 130.673 293.724 131.053" stroke="#302F38" stroke-width="0.9633" stroke-miterlimit="10" stroke-linecap="round" stroke-linejoin="round"/>
<path d="M285.632 131.271C285.089 132.302 284.383 133.28 283.568 134.149C284.492 134.638 285.469 135.018 286.447 135.235" stroke="#302F38" stroke-width="0.9633" stroke-miterlimit="10" stroke-linecap="round" stroke-linejoin="round"/>
<path d="M282.265 138.385C285.035 139.091 288.076 138.765 290.628 137.462" stroke="#302F38" stroke-width="0.9633" stroke-miterlimit="10" stroke-linecap="round" stroke-linejoin="round"/>
<path d="M241.533 223.976H343.905" stroke="#302F38" stroke-width="0.9633" stroke-miterlimit="10" stroke-linecap="round" stroke-linejoin="round"/>
<g opacity="0.2">
<path d="M345.427 128.609H319.087C317.62 128.609 316.48 127.415 316.48 126.003V111.882C316.48 110.416 317.675 109.276 319.087 109.276H345.427C346.893 109.276 348.033 110.47 348.033 111.882V126.003C348.033 127.415 346.839 128.609 345.427 128.609Z" fill="#302F38"/>
<path d="M345.427 128.609H319.087C317.62 128.609 316.48 127.415 316.48 126.003V111.882C316.48 110.416 317.675 109.276 319.087 109.276H345.427C346.893 109.276 348.033 110.47 348.033 111.882V126.003C348.033 127.415 346.839 128.609 345.427 128.609Z" stroke="#302F38" stroke-width="0.9633" stroke-miterlimit="10" stroke-linecap="round" stroke-linejoin="round"/>
</g>
<path d="M342.82 126.003H316.48C315.014 126.003 313.873 124.808 313.873 123.396V109.275C313.873 107.809 315.068 106.669 316.48 106.669H342.82C344.286 106.669 345.426 107.863 345.426 109.275V123.396C345.426 124.808 344.232 126.003 342.82 126.003Z" fill="white"/>
<path d="M342.82 126.003H316.48C315.014 126.003 313.873 124.808 313.873 123.396V109.275C313.873 107.809 315.068 106.669 316.48 106.669H342.82C344.286 106.669 345.426 107.863 345.426 109.275V123.396C345.426 124.808 344.232 126.003 342.82 126.003Z" stroke="#302F38" stroke-width="0.9633" stroke-miterlimit="10" stroke-linecap="round" stroke-linejoin="round"/>
<path d="M319.467 137.407C319.467 137.407 325.278 135.941 325.93 125.948" stroke="#302F38" stroke-width="0.9633" stroke-miterlimit="10" stroke-linecap="round" stroke-linejoin="round"/>
<path d="M330.492 116.336C330.492 115.847 330.112 115.467 329.623 115.467C329.134 115.467 328.754 115.847 328.754 116.336C328.754 116.824 329.134 117.205 329.623 117.205C330.112 117.205 330.492 116.824 330.492 116.336Z" fill="#302F38" stroke="#302F38" stroke-width="0.9633" stroke-miterlimit="10" stroke-linecap="round" stroke-linejoin="round"/>
<path d="M323.595 117.205C324.074 117.205 324.463 116.816 324.463 116.336C324.463 115.856 324.074 115.467 323.595 115.467C323.115 115.467 322.726 115.856 322.726 116.336C322.726 116.816 323.115 117.205 323.595 117.205Z" fill="#302F38" stroke="#302F38" stroke-width="0.9633" stroke-miterlimit="10" stroke-linecap="round" stroke-linejoin="round"/>
<path d="M336.52 116.336C336.52 115.847 336.14 115.467 335.651 115.467C335.162 115.467 334.782 115.847 334.782 116.336C334.782 116.824 335.162 117.205 335.651 117.205C336.14 117.205 336.52 116.824 336.52 116.336Z" fill="#302F38" stroke="#302F38" stroke-width="0.9633" stroke-miterlimit="10" stroke-linecap="round" stroke-linejoin="round"/>
<g opacity="0.2">
<path d="M185.324 140.992H183.152V138.82C183.152 138.548 182.934 138.277 182.608 138.277H181.414C181.142 138.277 180.871 138.494 180.871 138.82V140.992H178.753C178.481 140.992 178.209 141.209 178.209 141.535V142.73C178.209 143.002 178.427 143.273 178.753 143.273H180.871V145.446C180.871 145.717 181.088 145.989 181.414 145.989H182.608C182.88 145.989 183.152 145.771 183.152 145.446V143.273H185.324C185.595 143.273 185.867 143.056 185.867 142.73V141.535C185.867 141.209 185.595 140.992 185.324 140.992Z" fill="#302F38"/>
<path d="M185.324 140.992H183.152V138.82C183.152 138.548 182.934 138.277 182.608 138.277H181.414C181.142 138.277 180.871 138.494 180.871 138.82V140.992H178.753C178.481 140.992 178.209 141.209 178.209 141.535V142.73C178.209 143.002 178.427 143.273 178.753 143.273H180.871V145.446C180.871 145.717 181.088 145.989 181.414 145.989H182.608C182.88 145.989 183.152 145.771 183.152 145.446V143.273H185.324C185.595 143.273 185.867 143.056 185.867 142.73V141.535C185.867 141.209 185.595 140.992 185.324 140.992Z" stroke="#302F38" stroke-width="0.9633" stroke-miterlimit="10" stroke-linecap="round" stroke-linejoin="round"/>
</g>
<path d="M182.717 138.385H180.545V136.213C180.545 135.941 180.328 135.67 180.002 135.67H178.807C178.535 135.67 178.264 135.887 178.264 136.213V138.385H176.146C175.874 138.385 175.603 138.602 175.603 138.928V140.123C175.603 140.395 175.82 140.666 176.146 140.666H178.264V142.839C178.264 143.11 178.481 143.382 178.807 143.382H180.002C180.273 143.382 180.545 143.164 180.545 142.839V140.666H182.717C182.989 140.666 183.26 140.449 183.26 140.123V138.928C183.206 138.602 182.989 138.385 182.717 138.385Z" fill="white"/>
<path d="M182.717 138.385H180.545V136.213C180.545 135.941 180.328 135.67 180.002 135.67H178.807C178.535 135.67 178.264 135.887 178.264 136.213V138.385H176.146C175.874 138.385 175.603 138.602 175.603 138.928V140.123C175.603 140.395 175.82 140.666 176.146 140.666H178.264V142.839C178.264 143.11 178.481 143.382 178.807 143.382H180.002C180.273 143.382 180.545 143.164 180.545 142.839V140.666H182.717C182.989 140.666 183.26 140.449 183.26 140.123V138.928C183.206 138.602 182.989 138.385 182.717 138.385Z" stroke="#302F38" stroke-width="0.9633" stroke-miterlimit="10" stroke-linecap="round" stroke-linejoin="round"/>
</svg>
