<svg width="23" height="23" viewBox="0 0 23 23" fill="none" xmlns="http://www.w3.org/2000/svg">
<path d="M0.870536 7.70847C1.10138 7.70847 1.32291 7.61676 1.48613 7.45353C1.64935 7.29031 1.74107 7.06878 1.74107 6.83794V1.74107H6.83794C7.31867 1.74107 7.70848 1.35127 7.70848 0.870536C7.70848 0.389801 7.31867 0 6.83794 0H0.870536C0.389801 0 0 0.389801 0 0.870536V6.83794C0 7.06878 0.0917177 7.29031 0.254943 7.45353C0.418168 7.61675 0.63969 7.70847 0.870536 7.70847Z" fill="white"/>
<path d="M21.5044 14.6665C21.0237 14.6665 20.6339 15.0563 20.6339 15.5371V20.6339H15.537C15.0563 20.6339 14.6665 21.0237 14.6665 21.5045C14.6665 21.9852 15.0563 22.375 15.537 22.375H21.5044C21.7353 22.375 21.9568 22.2833 22.12 22.1201C22.2833 21.9568 22.375 21.7353 22.375 21.5045V15.5371C22.375 15.3062 22.2833 15.0847 22.12 14.9215C21.9568 14.7583 21.7353 14.6665 21.5044 14.6665Z" fill="white"/>
<path d="M21.5044 0H15.537C15.0563 0 14.6665 0.389801 14.6665 0.870536C14.6665 1.35127 15.0563 1.74107 15.537 1.74107H20.6339V6.83794C20.6339 7.31867 21.0237 7.70847 21.5044 7.70847C21.9852 7.70847 22.375 7.31867 22.375 6.83794V0.870536C22.375 0.63969 22.2833 0.418166 22.12 0.254943C21.9568 0.0917197 21.7353 0 21.5044 0Z" fill="white"/>
<path d="M6.83794 20.6339H1.74107V15.5371C1.74107 15.0563 1.35127 14.6665 0.870536 14.6665C0.389801 14.6665 0 15.0563 0 15.5371V21.5045C0 21.7353 0.0917177 21.9568 0.254943 22.1201C0.418168 22.2833 0.63969 22.375 0.870536 22.375H6.83794C7.31867 22.375 7.70848 21.9852 7.70848 21.5045C7.70848 21.0237 7.31867 20.6339 6.83794 20.6339Z" fill="white"/>
<path d="M12.4927 17.1518H12.0575V15.846C12.0575 15.3653 11.6677 14.9755 11.1869 14.9755C10.7062 14.9755 10.3164 15.3653 10.3164 15.846V18.0223C10.3164 18.2532 10.4081 18.4747 10.5713 18.6379C10.7346 18.8012 10.9561 18.8929 11.1869 18.8929H12.4927C12.9735 18.8929 13.3633 18.5031 13.3633 18.0223C13.3633 17.5416 12.9735 17.1518 12.4927 17.1518Z" fill="white"/>
<path d="M18.0225 17.1518H15.8461C15.3654 17.1518 14.9756 17.5416 14.9756 18.0223C14.9756 18.5031 15.3654 18.8929 15.8461 18.8929H18.0225C18.5032 18.8929 18.893 18.5031 18.893 18.0223C18.893 17.5416 18.5032 17.1518 18.0225 17.1518Z" fill="white"/>
<path d="M15.4108 13.9286V13.058H17.1518V15.6696C17.1518 16.1504 17.5416 16.5402 18.0224 16.5402C18.5031 16.5402 18.8929 16.1504 18.8929 15.6696V12.1875C18.8929 11.9566 18.8012 11.7351 18.638 11.5719C18.4747 11.4087 18.2532 11.317 18.0224 11.317H14.5402C14.0595 11.317 13.6697 11.7068 13.6697 12.1875V13.9286C13.6697 14.4093 14.0595 14.7991 14.5402 14.7991C15.0209 14.7991 15.4108 14.4093 15.4108 13.9286Z" fill="white"/>
<path d="M3.48218 4.35268V7.83483C3.48218 8.06567 3.5739 8.2872 3.73712 8.45042C3.90035 8.61365 4.12187 8.70536 4.35271 8.70536H7.83486C8.06571 8.70536 8.28723 8.61365 8.45045 8.45042C8.61368 8.2872 8.7054 8.06567 8.7054 7.83483V4.35268C8.7054 4.12184 8.61368 3.90031 8.45045 3.73709C8.28723 3.57387 8.06571 3.48215 7.83486 3.48215H4.35271C3.87198 3.48215 3.48218 3.87195 3.48218 4.35268ZM5.22325 5.22322H6.96432V6.96429H5.22325V5.22322Z" fill="white"/>
<path d="M14.5402 8.70536H18.0224C18.2532 8.70536 18.4747 8.61365 18.638 8.45042C18.8012 8.2872 18.8929 8.06567 18.8929 7.83483V4.35268C18.8929 4.12184 18.8012 3.90031 18.638 3.73709C18.4747 3.57387 18.2532 3.48215 18.0224 3.48215H14.5402C14.0595 3.48215 13.6697 3.87195 13.6697 4.35268V7.83483C13.6697 8.06567 13.7614 8.2872 13.9246 8.45042C14.0878 8.61365 14.3094 8.70536 14.5402 8.70536ZM15.4108 5.22322H17.1518V6.96429H15.4108V5.22322Z" fill="white"/>
<path d="M7.83486 13.6697H4.35271C3.87198 13.6697 3.48218 14.0595 3.48218 14.5402V18.0224C3.48218 18.2532 3.5739 18.4747 3.73712 18.638C3.90035 18.8012 4.12187 18.8929 4.35271 18.8929H7.83486C8.06571 18.8929 8.28723 18.8012 8.45045 18.638C8.61368 18.4747 8.7054 18.2532 8.7054 18.0224V14.5402C8.7054 14.3094 8.61368 14.0878 8.45045 13.9246C8.28723 13.7614 8.06571 13.6697 7.83486 13.6697ZM6.96432 17.1518H5.22325V15.4108H6.96432V17.1518Z" fill="white"/>
<path d="M11.1874 8.70536C11.4183 8.70536 11.6398 8.61365 11.803 8.45042C11.9662 8.2872 12.058 8.06567 12.058 7.83483V4.35268C12.058 3.87195 11.6682 3.48215 11.1874 3.48215C10.7067 3.48215 10.3169 3.87195 10.3169 4.35268V7.83483C10.3169 8.06567 10.4086 8.2872 10.5718 8.45042C10.7351 8.61365 10.9566 8.70536 11.1874 8.70536Z" fill="white"/>
</svg>
