<svg width="20" height="20" viewBox="0 0 20 20" fill="none" xmlns="http://www.w3.org/2000/svg">
<path d="M9.96106 0C5.6273 0 1.92743 2.79431 0.556152 6.66235H19.4177C18.0335 2.79431 14.3336 0 9.96106 0Z" fill="white"/>
<path d="M9.96106 20C14.3336 20 18.0335 17.2057 19.3919 13.3376H0.556152C1.92743 17.2315 5.6273 20 9.96106 20Z" fill="#C5281C"/>
<path d="M0.569214 6.66237C0.206989 7.6973 0 8.82279 0 10C0 11.1643 0.194052 12.3027 0.569214 13.3377H19.4308C19.793 12.3027 20 11.1772 20 10C20 8.83572 19.806 7.6973 19.4308 6.66237H0.569214Z" fill="#0039A6"/>
</svg>
