<svg width="17" height="16" viewBox="0 0 17 16" fill="none" xmlns="http://www.w3.org/2000/svg">
<path d="M12.156 15.972C11.9345 15.9817 11.7159 15.9193 11.533 15.794L8.01498 13.881L4.45298 15.838C4.24688 15.9514 4.01404 16.0071 3.77894 15.9994C3.54384 15.9916 3.31517 15.9207 3.11698 15.794C2.92731 15.6507 2.7783 15.4604 2.68465 15.2419C2.591 15.0233 2.55596 14.7842 2.58298 14.548L3.25098 10.321L0.355979 7.341C0.18709 7.17765 0.0712959 6.96723 0.0236737 6.73715C-0.0239485 6.50706 -0.0011925 6.26797 0.0889788 6.051C0.163484 5.82844 0.298954 5.63125 0.47998 5.48187C0.661006 5.33249 0.880321 5.23691 1.11298 5.206L5.07598 4.583L6.85698 0.8C6.94711 0.565634 7.10585 0.363909 7.31244 0.221184C7.51904 0.0784588 7.76388 0.00137316 8.01498 0C8.25887 0.0072716 8.49603 0.0816969 8.70034 0.215083C8.90465 0.348469 9.0682 0.535643 9.17298 0.756L10.954 4.538L14.917 5.161C15.1519 5.18546 15.3743 5.27868 15.5565 5.42899C15.7386 5.5793 15.8724 5.78002 15.941 6.006C16.0178 6.22835 16.0292 6.46805 15.9739 6.69669C15.9186 6.92533 15.7989 7.13332 15.629 7.296L12.735 10.277L13.403 14.326C13.4374 14.4414 13.4526 14.5617 13.448 14.682C13.4515 14.8525 13.4205 15.0221 13.3568 15.1803C13.2931 15.3385 13.1981 15.4823 13.0773 15.6028C12.9566 15.7233 12.8128 15.8182 12.6544 15.8816C12.4961 15.9451 12.3265 15.9758 12.156 15.972Z" fill="#FF6D50"/>
</svg>
