<?xml version="1.0" encoding="UTF-8"?>
<!DOCTYPE svg PUBLIC "-//W3C//DTD SVG 1.1//EN" "http://www.w3.org/Graphics/SVG/1.1/DTD/svg11.dtd">
<!-- Creator: CorelDRAW 2019 (64-Bit) -->
<svg xmlns="http://www.w3.org/2000/svg" xml:space="preserve" width="102.92mm" height="56.6642mm" version="1.1" style="shape-rendering:geometricPrecision; text-rendering:geometricPrecision; image-rendering:optimizeQuality; fill-rule:evenodd; clip-rule:evenodd"
viewBox="0 0 10278.54 5659.03"
 xmlns:xlink="http://www.w3.org/1999/xlink"
 xmlns:xodm="http://www.corel.com/coreldraw/odm/2003">
 <defs>
  <style type="text/css">
   <![CDATA[
    .fil5 {fill:#898989;fill-rule:nonzero}
    .fil4 {fill:#333333;fill-rule:nonzero}
    .fil3 {fill:white;fill-rule:nonzero}
    .fil2 {fill:url(#id0)}
    .fil0 {fill:url(#id1)}
    .fil1 {fill:url(#id2)}
   ]]>
  </style>
  <linearGradient id="id0" gradientUnits="userSpaceOnUse" x1="12923.74" y1="7874.9" x2="5258.1" y2="-1020.22">
   <stop offset="0" style="stop-opacity:1; stop-color:#FF1FB1"/>
   <stop offset="1" style="stop-opacity:1; stop-color:#FFAE00"/>
  </linearGradient>
  <linearGradient id="id1" gradientUnits="userSpaceOnUse" xlink:href="#id0" x1="12923.84" y1="7874.99" x2="5258.14" y2="-1020.31">
  </linearGradient>
  <linearGradient id="id2" gradientUnits="userSpaceOnUse" xlink:href="#id0" x1="12923.85" y1="7874.97" x2="5258.19" y2="-1020.29">
  </linearGradient>
 </defs>
 <g id="Слой_x0020_1">
  <metadata id="CorelCorpID_0Corel-Layer"/>
  <g id="_1252316144896">
   <path class="fil0" d="M8968.88 332.38l977.25 977.18c292.58,292.54 398.72,688.73 291.64,1088.39l-357.7 1334.93c-107.08,399.61 -397.1,689.63 -796.72,796.71l-1334.92 357.66c-399.62,107.08 -795.78,0.94 -1088.32,-291.6l-977.26 -977.18c-292.57,-292.54 -398.71,-688.73 -291.63,-1088.39l357.69 -1334.92c107.08,-399.62 397.1,-689.64 796.72,-796.72l1334.93 -357.66c399.62,-107.08 795.78,-0.94 1088.32,291.6z"/>
   <path class="fil1" d="M5413.01 4085.25l334.66 334.64c100.19,100.18 136.54,235.85 99.87,372.71l-122.49 457.14c-36.67,136.85 -135.99,236.17 -272.84,272.83l-457.14 122.48c-136.84,36.67 -272.5,0.33 -372.69,-99.85l-334.65 -334.64c-100.2,-100.18 -136.54,-235.85 -99.87,-372.71l122.49 -457.14c36.67,-136.85 135.98,-236.17 272.83,-272.83l457.14 -122.48c136.85,-36.67 272.51,-0.33 372.69,99.85z"/>
   <path class="fil2" d="M3498 4128.12l163.61 163.6c48.98,48.98 66.75,115.31 48.83,182.21l-59.89 223.49c-17.93,66.9 -66.47,115.46 -133.38,133.39l-223.49 59.88c-66.9,17.93 -133.24,0.15 -182.21,-48.83l-163.61 -163.6c-48.98,-48.98 -66.75,-115.3 -48.83,-182.21l59.89 -223.49c17.93,-66.9 66.47,-115.46 133.38,-133.39l223.49 -59.87c66.9,-17.93 133.24,-0.16 182.21,48.82z"/>
   <path class="fil3" d="M6993.86 3216.25c450.53,0 792.48,-303.72 792.48,-760.3 0,-456.57 -341.94,-744.2 -792.48,-744.2 -450.55,0 -790.47,287.62 -790.47,744.2 0,456.57 339.92,760.3 790.47,760.3zm0 -442.51c-162.93,0 -281.6,-132.75 -281.6,-317.79 0,-185.04 118.68,-305.73 281.6,-305.73 160.9,0 281.58,120.69 281.58,305.73 0,185.04 -120.68,317.79 -281.58,317.79zm993.6 402.28l58.25 0c224.94,0 408.39,-183.45 408.39,-408.39l0 -158.82 189.79 280.21c125.34,185.04 317.51,287 540.99,287l240.7 0 -561.16 -772.36 535 -651.68 -230.63 0c-215.74,0 -401.31,94.46 -528.27,268.86l-186.43 256.1 0 -524.95 -58.25 0c-224.95,0 -408.39,183.45 -408.39,408.39l0 1015.65z"/>
   <path class="fil4" d="M3442.6 3537.77l6.74 0c56.24,0 102.1,-45.87 102.1,-102.1l0 -256.67 1173.06 0 0 256.67c0,56.23 45.87,102.1 102.1,102.1l8.76 0 0 -461.56 -163.25 0 0 -1324.23 -138.55 0c-380.77,0 -696.31,287.36 -731.86,666.48 -29.52,314.99 -113.94,522.29 -246.21,657.75l-112.88 0 0 461.56zm257.99 -461.56c98.77,-121.09 182.45,-325.26 213.16,-648.37 32.08,-337.33 308.25,-573.06 643.45,-573.06l0 1221.43 -856.61 0z"/>
   <path class="fil4" d="M2121.58 3179l894.92 0 0 -0.69c0,-56.24 -45.89,-102.1 -102.1,-102.1l-679.94 0 0 -588.54 625.78 0 0 -100.8 -625.78 0 0 -532.1 653.74 0c56.24,0 102.1,-45.87 102.1,-102.1l0 -0.7 -868.72 0 0 1427.02z"/>
   <path class="fil4" d="M-0 3179l12.8 0c56.24,0 102.1,-45.86 102.1,-102.1l0 -1177.78 554.29 1279.88 64.51 0 554.28 -1279.88 0 1177.78c0,56.24 45.86,102.1 102.1,102.1l12.78 0 0 -1427.02 -1.35 0c-109,0 -202.09,61.73 -244.52,162.13l-453.54 1073.42 -457.3 -1074.09c-42.59,-100.06 -135.5,-161.46 -244.23,-161.46l-1.91 0 0 1427.02z"/>
   <path class="fil5" d="M430.69 981.18c0,-124.31 -88.4,-214.47 -215.35,-214.47 -126.06,0 -214.48,90.16 -214.48,214.47 0,123.43 88.42,215.37 214.48,215.37 126.94,0 215.35,-91.94 215.35,-215.37zm-49.02 0c0,97.17 -63.91,172.46 -166.33,172.46 -101.56,0 -165.45,-75.29 -165.45,-172.46 0,-97.17 63.9,-173.33 165.45,-173.33 102.43,0 166.33,76.16 166.33,173.33zm643.31 -203.96c2.62,27.13 3.5,70.9 3.5,93.66l0 314.29 48.16 0 0 -207.48c0,-113.8 63.91,-170.72 134.8,-170.72 90.18,0 115.56,66.54 115.56,147.08l0 231.12 47.28 0 0 -248.63c0,-96.29 -45.52,-169.83 -152.32,-169.83 -61.29,0 -122.56,35.88 -146.2,91.91l-1.76 0c0,-21.88 -1.74,-58.64 -3.5,-81.4l-45.52 0zm1021.51 -253.88l-47.28 0 0 661.83 47.28 0 0 -661.83zm677.46 253.88l-48.16 0 0 407.95 48.16 0 0 -407.95zm11.38 -161.96c0,-21.02 -17.51,-35.9 -35.89,-35.9 -17.51,0 -35,14.88 -35,35.9 0,21 17.5,35.89 35,35.89 18.39,0 35.89,-14.89 35.89,-35.89zm613.56 161.96c2.62,27.13 3.5,70.9 3.5,93.66l0 314.29 48.16 0 0 -207.48c0,-113.8 63.91,-170.72 134.8,-170.72 90.18,0 115.56,66.54 115.56,147.08l0 231.12 47.28 0 0 -248.63c0,-96.29 -45.52,-169.83 -152.33,-169.83 -61.28,0 -122.55,35.88 -146.19,91.91l-1.76 0c0,-21.88 -1.74,-58.64 -3.5,-81.4l-45.52 0zm991.72 175.95c3.5,-67.4 59.53,-147.08 151.45,-147.08 89.29,0 142.69,61.29 146.21,147.08l-297.66 0zm156.71 243.38c68.28,0 127.8,-26.28 173.34,-84.93l-31.53 -25.39c-37.63,44.65 -78.79,69.16 -140.06,69.16 -96.29,0 -157.58,-77.92 -159.34,-164.59l345.8 0 0 -24.5c0,-106.81 -64.79,-199.6 -192.59,-199.6 -113.8,0 -202.23,90.16 -202.23,213.59 0,124.31 87.55,216.25 206.6,216.25z"/>
  </g>
 </g>
</svg>
